<svg width="13" height="13" viewBox="0 0 13 13" fill="none" xmlns="http://www.w3.org/2000/svg">
<path d="M9.17677 6.78572C9.55885 6.2319 9.75 5.61888 9.75 4.94674C9.75 4.75815 9.73069 4.55501 9.69191 4.33733L7.66077 7.97898C8.28934 7.73726 8.79472 7.33928 9.17677 6.78572Z" fill="#2B748B"/>
<path d="M9.47432 1.76918C9.47917 1.75958 9.48143 1.7378 9.48143 1.70393C9.48143 1.62168 9.44276 1.55651 9.36529 1.5079C9.35085 1.49825 9.30372 1.47042 9.22381 1.42438C9.14408 1.37852 9.0678 1.33375 8.99541 1.29017C8.92289 1.24665 8.84323 1.20195 8.756 1.15601C8.66895 1.11005 8.59402 1.07257 8.53124 1.04353C8.46825 1.01453 8.4248 1 8.40061 1C8.31356 1 8.24582 1.03875 8.19749 1.11609L7.80586 1.81982C7.36588 1.73765 6.93049 1.69649 6.50006 1.69649C5.1991 1.69649 3.99971 2.02543 2.90181 2.68315C1.80399 3.34096 0.885149 4.23803 0.145111 5.37455C0.0483534 5.52459 0 5.69145 0 5.87523C0 6.05896 0.0483534 6.2259 0.145111 6.37574C0.570661 7.03823 1.07488 7.63084 1.65766 8.15308C2.24044 8.67551 2.87757 9.09367 3.56916 9.40818C3.35636 9.77084 3.24997 9.98131 3.24997 10.0394C3.24997 10.1264 3.28869 10.1941 3.36609 10.2424C3.95606 10.5811 4.28005 10.7502 4.33814 10.7502C4.42509 10.7502 4.49285 10.7114 4.5412 10.634L4.89668 9.98842C5.40936 9.07453 6.17343 7.70336 7.18913 5.87526C8.20478 4.0471 8.96649 2.67842 9.47432 1.76918ZM4.02621 8.59568C2.76882 8.02984 1.7362 7.1231 0.928624 5.87531C1.66373 4.73391 2.58504 3.88024 3.69254 3.31451C3.39754 3.8174 3.24999 4.36151 3.24999 4.94671C3.24999 5.46416 3.36843 5.95494 3.60547 6.41929C3.84246 6.88361 4.17133 7.26795 4.5921 7.57266L4.02621 8.59568ZM6.74673 3.33606C6.6791 3.40382 6.59667 3.43767 6.49996 3.43767C6.08407 3.43767 5.72852 3.58524 5.43352 3.88019C5.13844 4.17532 4.99099 4.53074 4.99099 4.94663C4.99099 5.04347 4.95705 5.12561 4.88938 5.19335C4.82159 5.26112 4.73942 5.29497 4.64274 5.29497C4.54596 5.29497 4.46373 5.26107 4.39602 5.19335C4.32825 5.12561 4.29441 5.04337 4.29441 4.94663C4.29441 4.34215 4.51089 3.8234 4.94368 3.39053C5.3765 2.95772 5.89518 2.74126 6.49976 2.74126C6.59647 2.74126 6.67871 2.7752 6.74656 2.84287C6.8142 2.91056 6.84809 2.99281 6.84809 3.08951C6.84812 3.18627 6.81422 3.26849 6.74673 3.33606Z" fill="#2B748B"/>
<path d="M12.8548 5.37455C12.5791 4.91515 12.2297 4.47014 11.8066 4.03971C11.3836 3.6093 10.9421 3.23942 10.4826 2.92984L10.0256 3.74234C10.8332 4.2985 11.5152 5.00949 12.0713 5.87515C11.4863 6.78434 10.7571 7.52674 9.88433 8.10221C9.01133 8.678 8.0622 9.00913 7.03687 9.09608L6.5 10.0537C7.57371 10.0537 8.58811 9.82405 9.54322 9.36458C10.4983 8.90528 11.3388 8.25959 12.0642 7.42777C12.4027 7.03594 12.6663 6.68535 12.855 6.37581C12.9517 6.21126 13 6.04433 13 5.8752C12.9999 5.70596 12.9516 5.53909 12.8548 5.37455Z" fill="#2B748B"/>
</svg>
