<svg width="13" height="13" viewBox="0 0 13 13" fill="none" xmlns="http://www.w3.org/2000/svg">
<path d="M12.855 5.52092C12.1778 4.46072 11.2673 3.60885 10.1236 2.96534C8.97976 2.3218 7.77196 2 6.5 2C5.22804 2 4.02019 2.32168 2.8764 2.96534C1.73258 3.60885 0.822114 4.46072 0.145036 5.52092C0.0483537 5.68294 0 5.84267 0 6.00012C0 6.15757 0.0483537 6.3173 0.145036 6.47928C0.822114 7.53953 1.73258 8.39147 2.8764 9.03483C4.02019 9.67844 5.22804 10 6.5 10C7.77198 10 8.97978 9.67951 10.1236 9.03833C11.2673 8.39714 12.1779 7.54408 12.855 6.47928C12.9517 6.3173 13 6.15764 13 6.00012C13 5.84267 12.9517 5.68294 12.855 5.52092ZM4.94381 3.62155C5.37663 3.20721 5.89531 2.99998 6.49992 2.99998C6.59661 2.99998 6.67888 3.03247 6.74662 3.09725C6.81426 3.16205 6.84826 3.24078 6.84826 3.33336C6.84826 3.42601 6.81426 3.50469 6.74677 3.5694C6.67913 3.63427 6.59681 3.66667 6.5001 3.66667C6.0842 3.66667 5.72863 3.80794 5.43365 4.09029C5.13858 4.37281 4.99113 4.71305 4.99113 5.11118C4.99113 5.20388 4.95718 5.28252 4.88951 5.34737C4.82175 5.41226 4.73958 5.44464 4.64287 5.44464C4.54608 5.44464 4.46389 5.41219 4.39614 5.34737C4.32838 5.28252 4.29453 5.20378 4.29453 5.11118C4.29453 4.53252 4.51102 4.0359 4.94381 3.62155ZM9.65211 8.26764C8.68239 8.83 7.63172 9.11135 6.5 9.11135C5.3683 9.11135 4.31763 8.83017 3.34796 8.26764C2.3783 7.7051 1.57184 6.94928 0.928629 6.00012C1.66374 4.90747 2.58505 4.09027 3.69256 3.5487C3.39756 4.03011 3.25001 4.55101 3.25001 5.11116C3.25001 5.96775 3.56806 6.70021 4.20398 7.30911C4.83989 7.918 5.60532 8.22232 6.5 8.22232C7.39476 8.22232 8.15996 7.91783 8.79602 7.30911C9.43209 6.70038 9.75001 5.96775 9.75001 5.11116C9.75001 4.55101 9.60244 4.03004 9.30741 3.5487C10.4149 4.09027 11.3362 4.90755 12.0713 6.00012C11.4282 6.94928 10.6218 7.7051 9.65211 8.26764Z" fill="#2B748B"/>
</svg>
