<svg width="128" height="128" viewBox="0 0 128 128" fill="none" xmlns="http://www.w3.org/2000/svg">
<path fill-rule="evenodd" clip-rule="evenodd" d="M29.3223 119.312C29.3223 119.312 31.2722 128 41.309 128H86.691C96.7273 128 98.6773 119.312 98.6773 119.312L107.636 34.1335H20.3635L29.3223 119.312ZM81.4547 46.9337C81.4547 44.5771 83.408 42.6671 85.8182 42.6671C88.2284 42.6671 90.1823 44.5771 90.1823 46.9337L85.8182 110.934C85.8182 113.29 83.8644 115.2 81.4547 115.2C79.045 115.2 77.0911 113.29 77.0911 110.934L81.4547 46.9337ZM59.6365 46.9337C59.6365 44.5771 61.5903 42.6671 64 42.6671C66.4102 42.6671 68.3635 44.5771 68.3635 46.9337V110.934C68.3635 113.29 66.4102 115.2 64 115.2C61.5898 115.2 59.6365 113.29 59.6365 110.934V46.9337ZM42.1818 42.6667C44.592 42.6667 46.5453 44.5766 46.5453 46.9332L50.9094 110.933C50.9094 113.29 48.9555 115.2 46.5453 115.2C44.1356 115.2 42.1818 113.289 42.1818 110.933L37.8182 46.9337C37.8182 44.5771 39.772 42.6667 42.1818 42.6667ZM105.018 17.0734H85.8182V8.53362C85.8182 2.06058 83.6772 0 77.0911 0H50.9089C44.868 0 42.1818 2.86107 42.1818 8.53362V17.0739H22.982C19.1231 17.0739 16 19.9378 16 23.4769C16 27.0164 19.1231 29.8803 22.982 29.8803H105.018C108.877 29.8803 112 27.0164 112 23.4769C112 19.9378 108.877 17.0734 105.018 17.0734ZM77.0911 17.0734H50.9094L50.9098 8.53314H77.0916V17.0734H77.0911Z" fill="black"/>
</svg>
