<svg width="14" height="11" viewBox="0 0 14 11" fill="none" xmlns="http://www.w3.org/2000/svg">
<path d="M3.24997 4.00011H0.749919C0.541657 4.00011 0.364534 4.073 0.218688 4.21885C0.0728685 4.36461 0 4.54168 0 4.75008V6.25022C0 6.45846 0.0728685 6.63544 0.218688 6.78123C0.364534 6.92705 0.541657 6.99998 0.749919 6.99998H3.24997C3.45823 6.99998 3.63535 6.92705 3.7812 6.78123C3.92705 6.63544 3.99989 6.45846 3.99989 6.25022V4.75008C3.99989 4.54168 3.92705 4.36461 3.7812 4.21885C3.63535 4.07308 3.45823 4.00011 3.24997 4.00011Z" fill="#0f0f0f"/>
<path d="M3.24997 0H0.749919C0.541657 0 0.364534 0.0728685 0.218688 0.218715C0.0728685 0.364562 0 0.541684 0 0.749947V2.25003C0 2.45843 0.0728685 2.63561 0.218688 2.78134C0.364534 2.92711 0.541657 3.00009 0.749919 3.00009H3.24997C3.45823 3.00009 3.63535 2.92711 3.7812 2.78134C3.92705 2.63558 3.99989 2.45851 3.99989 2.25011V0.750056C3.99989 0.541794 3.92705 0.364671 3.7812 0.218742C3.63535 0.0729506 3.45823 0 3.24997 0Z" fill="#0f0f0f"/>
<path d="M3.24997 8.00002H0.749919C0.541657 8.00002 0.364534 8.07286 0.218688 8.21876C0.0728685 8.36464 0 8.54173 0 8.75V10.2502C0 10.4585 0.0728685 10.6357 0.218688 10.7813C0.364534 10.9272 0.541657 11 0.749919 11H3.24997C3.45823 11 3.63535 10.9271 3.7812 10.7813C3.92705 10.6357 3.99989 10.4585 3.99989 10.2502V8.75C3.99989 8.54173 3.92705 8.36464 3.7812 8.21885C3.63535 8.07306 3.45823 8.00002 3.24997 8.00002Z" fill="#0f0f0f"/>
<path d="M13.2498 4.00011H5.74992C5.54157 4.00011 5.36453 4.073 5.21869 4.21885C5.07284 4.3647 5 4.54168 5 4.75008V6.25022C5 6.45846 5.07284 6.63544 5.21869 6.78123C5.36445 6.92705 5.54157 6.99998 5.74992 6.99998H13.25C13.4582 6.99998 13.6354 6.92705 13.7811 6.78123C13.927 6.63544 13.9998 6.45846 13.9998 6.25022V4.75008C13.9998 4.54168 13.927 4.36461 13.781 4.21885C13.6352 4.073 13.4582 4.00011 13.2498 4.00011Z" fill="#0f0f0f"/>
<path d="M13.2498 8.00002H5.74992C5.54157 8.00002 5.36453 8.07286 5.21869 8.21876C5.07284 8.36464 5 8.54165 5 8.74989V10.25C5 10.4583 5.07284 10.6355 5.21869 10.7813C5.36445 10.9271 5.54157 10.9999 5.74992 10.9999H13.25C13.4582 10.9999 13.6354 10.9271 13.7811 10.7813C13.927 10.6355 13.9998 10.4583 13.9998 10.25V8.74989C13.9998 8.54165 13.927 8.36447 13.781 8.21876C13.6352 8.07306 13.4582 8.00002 13.2498 8.00002Z" fill="#0f0f0f"/>
<path d="M13.781 0.218826C13.6352 0.0730612 13.4582 0.000110626 13.2498 0.000110626H5.74992C5.54157 0.000110626 5.36453 0.0729791 5.21869 0.218826C5.07284 0.364672 5 0.541795 5 0.750057V2.25014C5 2.45854 5.07284 2.6355 5.21869 2.78137C5.36445 2.92714 5.54157 3.00012 5.74992 3.00012H13.25C13.4582 3.00012 13.6352 2.92714 13.7811 2.78137C13.927 2.63561 13.9998 2.45854 13.9998 2.25014V0.750057C13.9998 0.541767 13.927 0.364672 13.781 0.218826Z" fill="#0f0f0f"/>
</svg>
