<?xml version="1.0" standalone="no"?>
<!DOCTYPE svg PUBLIC "-//W3C//DTD SVG 20010904//EN"
 "http://www.w3.org/TR/2001/REC-SVG-20010904/DTD/svg10.dtd">
<svg version="1.0" xmlns="http://www.w3.org/2000/svg"
 width="307.000000pt" height="307.000000pt" viewBox="0 0 307.000000 307.000000"
 preserveAspectRatio="xMidYMid meet">
<metadata>
Created by potrace 1.11, written by Peter Selinger 2001-2013
</metadata>
<g transform="translate(0.000000,307.000000) scale(0.100000,-0.100000)"
fill="#000000" stroke="none">
<path d="M2335 2115 c-128 -19 -157 -27 -200 -54 -137 -85 -300 -108 -468 -65
-58 15 -172 11 -182 -7 -3 -4 4 -23 15 -41 11 -19 23 -55 26 -81 6 -38 2 -56
-20 -102 -61 -124 -220 -151 -316 -55 -56 56 -70 128 -45 216 7 21 4 21 -252
-17 -142 -21 -261 -39 -264 -39 -10 0 35 -182 76 -308 68 -212 156 -402 278
-604 77 -128 206 -303 223 -303 13 0 1396 1276 1419 1308 8 12 15 39 15 60 0
32 -7 46 -39 78 -46 47 -50 47 -266 14z m75 -140 c14 -17 5 -51 -16 -59 -24
-9 -54 12 -54 39 0 34 47 48 70 20z m-264 -71 c103 -49 112 -204 15 -270 -101
-69 -244 8 -244 131 0 116 122 190 229 139z m-422 -67 c36 -26 -4 -84 -41 -61
-24 15 -27 38 -8 58 20 19 26 20 49 3z m-821 -97 c31 -63 77 -99 136 -107 47
-6 65 -24 56 -52 -22 -70 -192 -7 -248 91 -35 60 -41 93 -21 113 26 26 47 14
77 -45z m826 -178 c8 -15 2 -29 -29 -70 -49 -65 -55 -96 -34 -157 16 -48 16
-49 -5 -67 -12 -9 -29 -14 -37 -11 -46 17 -65 156 -30 223 43 83 112 125 135
82z m171 4 c6 -8 10 -25 8 -38 -4 -30 -46 -38 -65 -12 -17 23 -16 29 3 48 19
20 38 20 54 2z m-556 -39 c26 -19 18 -61 -12 -65 -44 -7 -67 32 -36 62 19 19
25 20 48 3z m-390 -100 c21 -16 18 -45 -6 -61 -35 -22 -74 27 -48 59 15 18 31
19 54 2z m415 -137 c87 -44 138 -154 112 -242 -20 -70 -55 -113 -112 -142 -70
-34 -128 -34 -198 0 -137 68 -160 251 -45 353 72 63 159 75 243 31z"/>
<path d="M2032 1833 c-21 -8 -43 -61 -36 -88 14 -55 93 -74 132 -32 59 63 -13
154 -96 120z"/>
<path d="M1213 1221 c-50 -23 -74 -57 -80 -114 -11 -105 113 -183 204 -127
149 91 35 314 -124 241z"/>
<path d="M413 2030 c-54 -22 -54 -89 -2 -301 61 -250 132 -445 243 -668 116
-231 282 -480 417 -625 46 -50 61 -59 89 -59 24 0 40 7 57 27 40 47 36 56 -86
207 -290 357 -491 785 -586 1243 -30 147 -36 163 -71 176 -29 12 -32 12 -61 0z"/>
<path d="M1285 1960 c-60 -24 -90 -103 -61 -159 19 -36 70 -71 104 -71 57 0
122 64 122 121 0 33 -38 90 -70 106 -28 14 -66 16 -95 3z"/>
</g>
</svg>
