<svg width="297" height="31" viewBox="0 0 297 31" fill="none" xmlns="http://www.w3.org/2000/svg">
<g clip-path="url(#clip0)">
<path d="M20.4373 9.01667C20.9247 9.79575 20.9947 10.8073 20.5311 11.6743C18.6176 15.2531 14.1494 16.608 10.5706 14.6945L7.89595 13.2644L6.65953 15.274L21.8145 23.3769L30.3288 4.83451C30.5237 4.41005 30.3546 3.90731 29.9427 3.68706L25.1637 1.13191C25.3056 2.04517 25.1637 3.00995 24.6953 3.88594C24.1554 4.89579 23.0502 5.41358 21.9773 5.25848C22.0347 5.91745 21.9092 6.5994 21.5748 7.2249C21.24 7.85102 20.7418 8.33447 20.1611 8.65279C20.3845 8.84576 20.4954 8.97731 20.4373 9.01667Z" fill="white"/>
<path d="M13.4051 20.8833C13.4045 20.883 13.4037 20.8829 13.4031 20.8826L5.61576 16.7189C5.18557 16.4889 4.6505 16.6511 4.42049 17.0813C4.19048 17.5115 4.35272 18.0465 4.78291 18.2766L11.1335 21.672L7.31286 23.7687L4.61937 22.3286C4.18918 22.0986 3.65412 22.2608 3.42411 22.691C3.1941 23.1212 3.35633 23.6563 3.78652 23.8863L6.90188 25.552C7.16514 25.6927 7.48159 25.6911 7.74307 25.5474L12.9932 22.6664L20.3597 26.605C20.7899 26.835 21.325 26.6728 21.555 26.2426C21.785 25.8124 21.6227 25.2774 21.1925 25.0474L13.4078 20.8851C13.4068 20.8845 13.4059 20.8838 13.4051 20.8833Z" fill="white"/>
<path d="M18.9734 10.8415C19.2034 10.4113 19.0412 9.87623 18.611 9.64623L1.99575 0.762515C1.56557 0.532505 1.0305 0.694743 0.800489 1.12493C-0.653742 3.84478 0.375933 7.2407 3.09579 8.69493L11.4034 13.1368C14.1233 14.591 17.5192 13.5613 18.9734 10.8415Z" fill="white"/>
<path d="M17.6265 7.11689C18.4868 7.5769 19.557 7.25243 20.017 6.39206C20.477 5.53168 20.1525 4.46155 19.2922 4.00153L13.4999 2C12.6396 1.53998 10.96 0.139623 10.4999 0.999997C10.0399 1.86037 5.63957 1.53999 6.49995 2.00001L17.6265 7.11689Z" fill="white"/>
<path d="M29.964 26.6444L29.7103 27.8801L31.7307 29.0486L34.5319 15.4035C33.7644 15.3279 32.9899 15.3803 32.2398 15.5585L29.964 26.6444Z" fill="white"/>
<path d="M29.088 17.2385C28.868 17.4417 28.6344 17.6297 28.389 17.8008L26.6424 26.3088L28.9598 26.0308L31.0265 15.9633C30.3145 16.2788 29.6595 16.7097 29.088 17.2385Z" fill="white"/>
<path d="M32.6607 30.0234L32.5925 30.3557L34.9098 30.0776L37.6965 16.5035C37.0585 16.0914 36.3577 15.7858 35.6218 15.5992L32.6607 30.0234Z" fill="white"/>
<path d="M23.9828 22.7487L26.0032 23.9173L27.1163 18.4951C26.3675 18.8002 25.5675 18.9607 24.759 18.9677L23.9828 22.7487Z" fill="white"/>
<path d="M40.1904 19.3398C39.8153 18.5611 39.2999 17.858 38.6701 17.2662L36.5509 27.5891L38.5713 28.7577L40.413 19.7867C40.3848 19.7329 40.3549 19.6809 40.3283 19.6264L40.1904 19.3398Z" fill="white"/>
<path d="M22.3828 17.3288C24.3626 18.2882 26.7287 17.9299 28.3356 16.4274C30.2273 14.6719 32.8406 13.919 35.3765 14.3991C37.9122 14.8788 40.0696 16.5343 41.1889 18.86L41.3268 19.1465C42.198 20.9781 44.0362 22.1537 46.0641 22.1757L46.9954 1.88705L30.5 1.88705L22.3473 17.3121L22.3828 17.3288ZM44.6719 18.2696L43.566 18.2277L43.6081 17.1062L44.7139 17.1481L44.6719 18.2696ZM44.9232 11.5403L44.7555 16.0265L43.6494 15.9859L43.8171 11.4997L44.9232 11.5403Z" fill="white"/>
<path d="M39.9897 27.3537L42.3071 27.0756L43.2278 22.5903C42.4854 22.215 41.8237 21.6981 41.2799 21.0688L39.9897 27.3537Z" fill="white"/>
<path d="M56.4617 5.89499L60.3212 5.56207L59.3712 4.01154L57.1321 4.20468L56.4617 5.89499Z" fill="white"/>
<path d="M65.4239 20.822C65.3442 19.8979 64.8113 19.0798 63.998 18.6334L63.2154 20.0592C63.5559 20.2458 63.7701 20.5748 63.8035 20.9618C63.8368 21.3488 63.6822 21.7096 63.3787 21.9518C62.6539 22.5308 62.2689 23.4281 62.3487 24.3523C62.4284 25.2764 62.9613 26.0945 63.7746 26.5409L64.5571 25.1151C64.2166 24.9285 64.0025 24.5994 63.9691 24.2125C63.9357 23.8255 64.0903 23.4646 64.3938 23.2225C65.1187 22.6434 65.5036 21.7462 65.4239 20.822Z" fill="white"/>
<path d="M61.3729 21.1714C61.2931 20.2473 60.7602 19.4292 59.947 18.9828L59.1644 20.4086C59.5049 20.5952 59.7191 20.9243 59.7524 21.3112C59.7858 21.6982 59.6312 22.0591 59.3277 22.3012C58.6028 22.8803 58.2179 23.7775 58.2976 24.7017C58.3773 25.6258 58.9102 26.4439 59.7235 26.8903L60.5061 25.4645C60.1656 25.2779 59.9514 24.9489 59.9181 24.5619C59.8847 24.1749 60.0393 23.8141 60.3428 23.5719C61.0676 22.9929 61.4526 22.0956 61.3729 21.1714Z" fill="white"/>
<path d="M57.3218 21.5209C57.2421 20.5968 56.7092 19.7787 55.8959 19.3323L55.1134 20.7581C55.4539 20.9447 55.668 21.2737 55.7014 21.6607C55.7348 22.0476 55.5801 22.4085 55.2767 22.6507C54.5518 23.2297 54.1669 24.127 54.2466 25.0511C54.3263 25.9753 54.8592 26.7934 55.6725 27.2398L56.455 25.814C56.1146 25.6274 55.9004 25.2983 55.867 24.9114C55.8336 24.5244 55.9883 24.1635 56.2918 23.9214C57.0166 23.3423 57.4015 22.4451 57.3218 21.5209Z" fill="white"/>
<path d="M72.6384 9.39703L44.9832 11.7826L44.7036 8.54173L72.3589 6.15618L72.6384 9.39703Z" fill="white"/>
<path d="M70.3016 11.2311L47.5996 13.1894L49.8466 17.9474L68.9026 16.3036L70.3016 11.2311Z" fill="white"/>
<path d="M79.3914 15.2287L77.3392 1.4653L75.2772 1.69327L76.5627 15.5415L79.3914 15.2287Z" fill="white"/>
<path d="M80.7712 15.0762L83.5999 14.7634L80.7811 1.08476L78.719 1.31273L80.7712 15.0762Z" fill="white"/>
<path d="M75.1814 15.6941L73.8959 1.84595L71.837 2.07356L72.3559 16.0065L75.1814 15.6941Z" fill="white"/>
<path d="M82.5329 1.38635L84.9811 14.3855L87.8068 14.0228L84.5919 1.122L82.5329 1.38635Z" fill="white"/>
<path d="M72.4624 18.3097C72.6865 18.701 73.0697 18.9759 73.5132 19.0644L74.0399 19.1693L74.0716 19.7053C74.0985 20.1568 74.3186 20.5739 74.6755 20.8496C75.0323 21.1252 75.4913 21.2326 75.9351 21.1446L76.4617 21.0401L76.6961 21.523C76.8938 21.9299 77.2568 22.231 77.692 22.3492C78.127 22.4672 78.5924 22.391 78.9687 22.1398L79.4151 21.8416L79.8167 22.198C80.1549 22.4983 80.6055 22.6377 81.0527 22.5803C81.4998 22.5229 81.9006 22.2742 82.1522 21.8982L82.4504 21.4519L82.9579 21.6276C83.3852 21.7755 83.8548 21.7318 84.2461 21.5077C84.6374 21.2834 84.9124 20.9004 85.0008 20.4568L85.1058 19.9303L85.6417 19.8984C86.0928 19.8715 86.5102 19.6515 86.7858 19.2947C87.0616 18.9379 87.169 18.4787 87.081 18.035L86.9763 17.5084L87.4594 17.2738C87.8663 17.0762 88.1675 16.7134 88.2856 16.2782C88.3675 15.9758 88.3555 15.659 88.2566 15.3676L72.2604 17.4214C72.2382 17.7283 72.3066 18.0378 72.4624 18.3097Z" fill="white"/>
<path d="M97.1967 10.8187L97.1245 9.5706C96.459 10.1486 95.4617 10.1206 94.8296 9.50613C94.1976 8.89169 94.1415 7.89558 94.7004 7.21401C95.2594 6.53244 96.2472 6.39251 96.9735 6.89204L96.6988 2.28546C92.7928 2.7291 89.0561 4.12735 85.8185 6.35682L95.8081 19.1994C96.0811 19.5518 96.5518 19.6855 96.9694 19.5293C97.3869 19.373 97.6542 18.9632 97.6288 18.5181L97.466 15.7208C96.5419 14.2409 96.4403 12.3909 97.1967 10.8187ZM93.6609 5.75518C93.7516 4.75277 94.5325 3.95115 95.5322 3.83413C95.6228 3.82167 95.7146 3.84634 95.7868 3.90254C95.859 3.95874 95.9054 4.04171 95.9156 4.13262C95.9252 4.22229 95.8988 4.31211 95.8421 4.38226C95.7855 4.45241 95.7032 4.49711 95.6135 4.50648C94.9312 4.58229 94.3994 5.13273 94.347 5.81722C94.3289 6.00406 94.1627 6.14084 93.9759 6.12272C93.7891 6.10461 93.6523 5.93846 93.6704 5.75161L93.6609 5.75518ZM92.3324 4.23811C92.5079 4.17244 92.7034 4.26147 92.7691 4.43697C92.8348 4.61246 92.7457 4.80797 92.5702 4.87364C92.3948 4.93931 92.1992 4.85028 92.1336 4.67478C92.0679 4.49928 92.1569 4.30378 92.3324 4.23811ZM92.886 7.65358C93.0615 7.58791 93.257 7.67694 93.3226 7.85244C93.3883 8.02793 93.2993 8.22344 93.1238 8.28911C92.9483 8.35478 92.7528 8.26575 92.6871 8.09025C92.6214 7.91475 92.7105 7.71925 92.886 7.65358ZM87.9022 7.88833C87.541 6.92309 88.0307 5.84782 88.9959 5.48663C89.9611 5.12544 91.0364 5.61512 91.3976 6.58035C91.7588 7.54559 91.2691 8.62086 90.3039 8.98205C89.3387 9.34122 88.2648 8.85218 87.9022 7.88833ZM91.1762 10.8292C91.0007 10.8949 90.8052 10.8058 90.7395 10.6303C90.6739 10.4548 90.7629 10.2593 90.9384 10.1937C91.8446 9.78937 92.9098 10.1324 93.4098 10.9896C93.4794 11.0891 93.4906 11.2182 93.4392 11.3282C93.3878 11.4382 93.2817 11.5125 93.1607 11.523C93.0397 11.5335 92.9224 11.4787 92.8528 11.3792C92.3946 10.7355 91.8753 10.5676 91.1762 10.8292ZM93.2796 12.5779C93.3453 12.7534 93.2562 12.9489 93.0807 13.0146C92.9052 13.0803 92.7097 12.9912 92.6441 12.8157C92.5784 12.6402 92.6674 12.4447 92.8429 12.3791C93.0184 12.3134 93.2139 12.4024 93.2796 12.5779ZM96.2543 17.6232C96.0788 17.6889 95.8833 17.5999 95.8176 17.4244C95.752 17.2489 95.841 17.0534 96.0165 16.9877C96.192 16.922 96.3875 17.011 96.4532 17.1865C96.5188 17.362 96.4298 17.5575 96.2543 17.6232ZM95.2231 15.8355C94.5211 16.0982 93.7391 15.7421 93.4764 15.0401C93.2137 14.3381 93.5699 13.5561 94.2719 13.2934C94.9738 13.0307 95.7559 13.3869 96.0185 14.0888C96.2812 14.7908 95.9251 15.5729 95.2231 15.8355ZM95.504 11.7456C95.3285 11.8112 95.133 11.7222 95.0673 11.5467C95.0016 11.3712 95.0907 11.1757 95.2661 11.11C95.4416 11.0444 95.6372 11.1334 95.7028 11.3089C95.7685 11.4844 95.6795 11.6799 95.504 11.7456Z" fill="white"/>
<path d="M94.5097 13.9289C94.1587 14.0603 93.9806 14.4513 94.112 14.8023C94.2433 15.1533 94.6343 15.3313 94.9853 15.2C95.3363 15.0687 95.5144 14.6776 95.383 14.3267C95.2517 13.9757 94.8607 13.7976 94.5097 13.9289Z" fill="white"/>
<path d="M95.0692 8.64788C95.2663 9.17437 95.8528 9.44146 96.3793 9.24445C96.9058 9.04744 97.1728 8.46093 96.9758 7.93444C96.7788 7.40795 96.1923 7.14085 95.6658 7.33786C95.1393 7.53487 94.8722 8.12139 95.0692 8.64788Z" fill="white"/>
<path d="M97.6281 1.50661C98.0018 1.4788 98.2822 1.15329 98.2544 0.779556C98.2266 0.405826 97.9011 0.125402 97.5273 0.15321C92.5639 0.517981 87.8089 2.29728 83.8253 5.28047C83.5251 5.50483 83.4637 5.93006 83.688 6.23024C83.9124 6.53042 84.3376 6.59188 84.6378 6.36751C88.4166 3.54311 92.9234 1.85667 97.6281 1.50661Z" fill="white"/>
<path d="M90.7619 6.81818C90.5936 6.36835 90.1709 6.0642 89.6909 6.04757C89.2108 6.03094 88.7681 6.3051 88.569 6.74221C88.37 7.17931 88.4538 7.69329 88.7815 8.04446C89.1091 8.39564 89.6161 8.51486 90.0659 8.34654C90.6801 8.11669 90.9918 7.43242 90.7619 6.81818Z" fill="white"/>
<path d="M102.252 10.492L100.357 12.0503L103.81 12.387L102.252 10.492Z" fill="white"/>
<path d="M111.957 13.1813C112.151 12.9131 112.286 12.5973 112.321 12.2446C112.355 11.8917 112.285 11.5553 112.145 11.2553L109.211 10.9693L110.95 13.0831L111.957 13.1813Z" fill="white"/>
<path d="M98.0196 11.8225L98.9948 11.9176L101.109 10.1793L98.2069 9.89646C98.0117 10.1638 97.8779 10.4803 97.8435 10.8332C97.8091 11.1859 97.8808 11.5219 98.0196 11.8225Z" fill="white"/>
<path d="M111.032 10.1746C111.298 10.2005 111.534 10.0058 111.56 9.74006L111.685 8.46057C111.401 8.07837 110.877 8.09853 110.611 8.42418C110.261 8.85152 109.725 9.07506 109.176 9.02151C108.627 8.96797 108.143 8.64505 107.883 8.1583C107.666 7.75077 107.051 7.69079 106.759 8.04865C106.409 8.47599 105.873 8.69952 105.324 8.64598C104.775 8.59243 104.291 8.26952 104.031 7.78276C103.814 7.37523 103.199 7.31527 102.907 7.67311C102.557 8.10045 102.021 8.32399 101.472 8.27044C100.923 8.2169 100.439 7.89398 100.179 7.40723C99.9879 7.0492 99.4817 6.94807 99.1716 7.18417L99.0414 8.51958C99.0155 8.78528 99.2102 9.02212 99.4759 9.04802L111.032 10.1746Z" fill="white"/>
<path d="M106.887 10.7426L103.433 10.406L104.992 12.3009L106.887 10.7426Z" fill="white"/>
<path d="M98.1339 7.85554L98.211 7.06445C98.1847 6.93556 98.2133 6.79834 98.3054 6.6853C98.6547 6.25796 99.191 6.03505 99.7402 6.08859C100.289 6.14212 100.772 6.46442 101.033 6.95117C101.25 7.35884 101.865 7.4188 102.157 7.06082C102.507 6.63348 103.043 6.41057 103.592 6.46412C104.141 6.51766 104.624 6.83995 104.885 7.32671C105.102 7.73438 105.717 7.79434 106.009 7.43636C106.359 7.00902 106.895 6.78611 107.444 6.83965C107.993 6.8932 108.476 7.21549 108.737 7.70224C108.954 8.1099 109.569 8.16986 109.861 7.8119C110.528 6.99401 111.978 7.08218 112.547 7.95705C112.654 8.05619 112.715 8.20211 112.7 8.35822L112.611 9.26693C113.19 9.12195 113.645 8.63191 113.706 8.00496C113.887 6.14667 112.494 4.45181 110.635 4.27064L101.005 3.3318C99.147 3.15064 97.4521 4.54439 97.271 6.40268C97.2099 7.02963 97.5941 7.60152 98.1339 7.85554Z" fill="white"/>
<path d="M108.029 11.0553L106.135 12.6136L109.588 12.9503L108.029 11.0553Z" fill="white"/>
<path d="M98.9968 17.4696L100.378 15.2699C100.52 15.0452 100.817 14.975 101.046 15.1176C101.272 15.2598 101.34 15.5584 101.198 15.7847L99.9264 17.8091C100.132 17.8603 100.337 17.9137 100.553 17.9348L101.7 18.0466L103.267 15.5516C103.407 15.3281 103.705 15.256 103.935 15.3993C104.161 15.5415 104.229 15.84 104.087 16.0664L102.777 18.1516L103.924 18.2634L103.783 19.7079C103.757 19.974 103.952 20.2104 104.218 20.2364C104.484 20.2623 104.72 20.0679 104.746 19.8018L104.945 17.7618L106.156 15.8332C106.298 15.6085 106.595 15.5383 106.824 15.6809C107.05 15.8231 107.118 16.1217 106.976 16.348L105.666 18.4333L107.478 18.6099L109.045 16.1149C109.187 15.8902 109.484 15.8199 109.713 15.9626C109.939 16.1048 110.007 16.4033 109.865 16.6297L108.574 18.6847C110.831 18.7395 112.826 17.0283 113.049 14.7459C113.065 14.576 113.046 14.412 113.006 14.2557L96.7497 12.6708C96.6808 12.8165 96.6269 13.0058 96.6104 13.1757C96.4321 15.0042 97.4539 16.6778 98.9968 17.4696Z" fill="white"/>
<path d="M128.764 8.11523H124.755L124.14 8.73047L127.593 12.184C127.611 12.1617 127.631 12.1423 127.649 12.1197C128.532 10.9804 128.916 9.55751 128.764 8.11523Z" fill="white"/>
<path d="M121.784 9.3457H117.795C117.914 10.4083 118.327 11.3731 118.963 12.1674L121.784 9.3457Z" fill="white"/>
<path d="M122.654 10.2157L119.833 13.0374C120.627 13.6729 121.592 14.0859 122.654 14.2054V10.2157Z" fill="white"/>
<path d="M123.885 14.2327C124.934 14.1176 125.913 13.7092 126.726 13.0567L123.885 10.2157V14.2327Z" fill="white"/>
<path d="M131.883 8.11523H129.998C130.147 9.82732 129.676 11.5134 128.622 12.873C128.572 12.9371 128.515 12.9927 128.464 13.0546L130.207 14.7974C131.629 13.1733 132.498 11.0538 132.498 8.73047C132.498 8.39049 132.223 8.11523 131.883 8.11523Z" fill="white"/>
<path d="M114 8.11525H116.541C116.665 6.73241 117.204 5.44987 118.076 4.4067L116.333 2.6637C115.038 4.1425 114.138 6.03403 114 8.11525Z" fill="white"/>
<path d="M127.599 13.9299C126.55 14.8071 125.264 15.3396 123.885 15.4632V18C125.966 17.8619 127.858 16.9625 129.336 15.6674L127.599 13.9299Z" fill="white"/>
<path d="M122.654 18V15.4668C121.25 15.3396 119.968 14.7835 118.942 13.9279L117.203 15.6674C118.682 16.9624 120.573 17.8619 122.654 18Z" fill="white"/>
<path d="M116.333 14.7973L118.072 13.0579C117.217 12.0321 116.661 10.7502 116.533 9.3457H114C114.138 11.4269 115.038 13.3185 116.333 14.7973Z" fill="white"/>
<path d="M121.784 8.11524L118.948 5.27924C118.3 6.08849 117.887 7.06406 117.771 8.11524H121.784Z" fill="white"/>
<path d="M123.885 7.24526V3.23182C122.635 3.09724 121.407 3.36304 120.338 4.03274C120.154 4.1473 119.982 4.27419 119.816 4.40669L123.27 7.8605L123.885 7.24526Z" fill="white"/>
<path d="M125.985 6.8848H131.268V6.26956C131.268 4.96475 130.795 3.77995 130.038 2.83258L125.985 6.8848Z" fill="white"/>
<path d="M130.928 1.94208C131.907 3.11615 132.498 4.62476 132.498 6.26955V6.88478H134.385C134.725 6.88478 135 6.60953 135 6.26955C135 3.94624 134.09 1.82672 132.667 0.202759L130.928 1.94208Z" fill="white"/>
<path d="M125.731 0.732422H125.115V6.01479L129.168 1.96257C128.22 1.20474 127.035 0.732422 125.731 0.732422Z" fill="white"/>
<path d="M146.252 7.46058C146.23 7.35345 146.192 7.25278 146.156 7.15139L144.12 10.2478C144.226 10.2406 144.332 10.2397 144.439 10.2178C145.699 9.95756 146.512 8.72064 146.252 7.46058Z" fill="white"/>
<path d="M148.715 6.7576C148.884 6.08913 148.801 5.40074 148.475 4.76671C148.375 4.57206 148.245 4.39684 148.102 4.23309L146.752 6.24535C146.942 6.55979 147.09 6.90126 147.166 7.2718C147.346 8.14013 147.158 8.99905 146.713 9.69253L147.385 12.9453C147.437 13.1979 147.275 13.4445 147.022 13.4966L143.769 14.1683C143.309 14.8512 142.595 15.3641 141.726 15.5434C141.356 15.6199 140.984 15.6198 140.62 15.5696L139.307 17.6061C139.514 17.6726 139.726 17.7225 139.944 17.7372C140.656 17.7857 141.321 17.5893 141.867 17.1689C142.237 16.885 142.705 16.7883 143.151 16.9018C143.97 17.1116 144.858 16.9282 145.527 16.4112C145.892 16.1297 146.359 16.0331 146.813 16.1485C147.481 16.3167 148.168 16.2339 148.8 15.9093C149.648 15.474 150.24 14.5755 150.305 13.6235C150.352 12.9123 150.156 12.2479 149.736 11.7021C149.452 11.3331 149.355 10.8644 149.469 10.4175C149.574 10.0082 149.583 9.58962 149.497 9.17325C149.411 8.75688 149.236 8.37641 148.978 8.04207C148.696 7.67665 148.6 7.2084 148.715 6.7576Z" fill="white"/>
<path d="M143.351 11.872C143.329 11.7649 143.291 11.6642 143.255 11.5629L141.216 14.6635C141.323 14.6564 141.43 14.6514 141.538 14.6292C142.798 14.369 143.611 13.1321 143.351 11.872Z" fill="white"/>
<path d="M146.376 12.677L145.933 10.5279C145.557 10.8138 145.12 11.0302 144.628 11.1319C144.455 11.1676 144.282 11.1728 144.109 11.1806C144.171 11.3438 144.229 11.509 144.265 11.6833C144.367 12.1758 144.341 12.6623 144.227 13.1208L146.376 12.677Z" fill="white"/>
<path d="M137.002 18.4554C137.469 18.3589 137.871 18.086 138.133 17.6875L147.712 3.12378C147.974 2.72526 148.065 2.24795 147.968 1.78064C147.769 0.815656 146.786 0.16886 145.821 0.368134L133.78 2.85459C132.815 3.05386 132.168 4.03731 132.368 5.0023L134.854 17.0429C135.053 18.0079 136.037 18.6546 137.002 18.4554ZM141.717 3.29313C141.859 3.07771 142.148 3.01798 142.363 3.15966L144.018 4.24775C144.233 4.3893 144.293 4.67855 144.151 4.89397C144.009 5.10938 143.72 5.16911 143.505 5.02744L141.85 3.93947C141.635 3.79779 141.575 3.50855 141.717 3.29313ZM138.061 4.04819C138.202 3.8328 138.492 3.77305 138.707 3.91475L142.567 6.45348C142.782 6.59515 142.842 6.8844 142.7 7.0997C142.559 7.31511 142.27 7.37484 142.054 7.23317L138.194 4.69453C137.979 4.55286 137.919 4.26361 138.061 4.04819ZM134.404 4.80329C134.546 4.58787 134.835 4.52814 135.05 4.66981L141.116 8.65921C141.332 8.80088 141.391 9.09013 141.25 9.30554C141.108 9.52084 140.819 9.58057 140.603 9.43902L134.538 5.44962C134.322 5.30795 134.262 5.0187 134.404 4.80329ZM135.159 8.45968C135.301 8.24438 135.59 8.18465 135.806 8.3262L139.666 10.8649C139.881 11.0066 139.941 11.2959 139.799 11.5113C139.657 11.7267 139.368 11.7864 139.153 11.6447L135.293 9.10602C135.077 8.96434 135.018 8.67521 135.159 8.45968ZM135.914 12.1162C136.056 11.9008 136.345 11.841 136.561 11.9827L138.215 13.0707C138.43 13.2124 138.49 13.5016 138.348 13.717C138.207 13.9324 137.917 13.9922 137.702 13.8505L136.048 12.7625C135.832 12.6209 135.773 12.3316 135.914 12.1162Z" fill="white"/>
<path d="M164.437 9.01667C164.925 9.79575 164.995 10.8073 164.531 11.6743C162.618 15.2531 158.149 16.608 154.571 14.6945L151.896 13.2644L150.66 15.274L165.814 23.3769L174.329 4.83451C174.524 4.41005 174.355 3.90731 173.943 3.68706L169.164 1.13191C169.306 2.04517 169.164 3.00995 168.695 3.88594C168.155 4.89579 167.05 5.41358 165.977 5.25848C166.035 5.91745 165.909 6.5994 165.575 7.2249C165.24 7.85102 164.742 8.33447 164.161 8.65279C164.384 8.84576 164.495 8.97731 164.437 9.01667Z" fill="white"/>
<path d="M157.405 20.8833C157.404 20.883 157.404 20.8829 157.403 20.8826L149.616 16.7189C149.186 16.4889 148.651 16.6511 148.42 17.0813C148.19 17.5115 148.353 18.0465 148.783 18.2766L155.133 21.672L151.313 23.7687L148.619 22.3286C148.189 22.0986 147.654 22.2608 147.424 22.691C147.194 23.1212 147.356 23.6563 147.787 23.8863L150.902 25.552C151.165 25.6927 151.482 25.6911 151.743 25.5474L156.993 22.6664L164.36 26.605C164.79 26.835 165.325 26.6728 165.555 26.2426C165.785 25.8124 165.623 25.2774 165.193 25.0474L157.408 20.8851C157.407 20.8845 157.406 20.8838 157.405 20.8833Z" fill="white"/>
<path d="M162.973 10.8415C163.203 10.4113 163.041 9.87623 162.611 9.64623L145.996 0.762515C145.566 0.532505 145.03 0.694743 144.8 1.12493C143.346 3.84478 144.376 7.2407 147.096 8.69493L155.403 13.1368C158.123 14.591 161.519 13.5613 162.973 10.8415Z" fill="white"/>
<path d="M161.626 7.11689C162.487 7.5769 163.557 7.25243 164.017 6.39206C164.477 5.53168 164.153 4.46155 163.292 4.00153L157.5 2C156.64 1.53998 154.96 0.139623 154.5 0.999997C154.04 1.86037 149.64 1.53999 150.5 2.00001L161.626 7.11689Z" fill="white"/>
<path d="M173.964 26.6444L173.71 27.8801L175.731 29.0486L178.532 15.4035C177.764 15.3279 176.99 15.3803 176.24 15.5585L173.964 26.6444Z" fill="white"/>
<path d="M173.088 17.2385C172.868 17.4417 172.634 17.6297 172.389 17.8008L170.642 26.3088L172.96 26.0308L175.027 15.9633C174.314 16.2788 173.66 16.7097 173.088 17.2385Z" fill="white"/>
<path d="M176.661 30.0234L176.592 30.3557L178.91 30.0776L181.696 16.5035C181.058 16.0914 180.358 15.7858 179.622 15.5992L176.661 30.0234Z" fill="white"/>
<path d="M167.983 22.7487L170.003 23.9173L171.116 18.4951C170.367 18.8002 169.567 18.9607 168.759 18.9677L167.983 22.7487Z" fill="white"/>
<path d="M184.19 19.3398C183.815 18.5611 183.3 17.858 182.67 17.2662L180.551 27.5891L182.571 28.7577L184.413 19.7867C184.385 19.7329 184.355 19.6809 184.328 19.6264L184.19 19.3398Z" fill="white"/>
<path d="M166.383 17.3288C168.363 18.2882 170.729 17.9299 172.336 16.4274C174.227 14.6719 176.841 13.919 179.376 14.3991C181.912 14.8788 184.07 16.5343 185.189 18.86L185.327 19.1465C186.198 20.9781 188.036 22.1537 190.064 22.1757L190.995 1.88705L174.5 1.88705L166.347 17.3121L166.383 17.3288ZM188.672 18.2696L187.566 18.2277L187.608 17.1062L188.714 17.1481L188.672 18.2696ZM188.923 11.5403L188.755 16.0265L187.649 15.9859L187.817 11.4997L188.923 11.5403Z" fill="white"/>
<path d="M183.99 27.3537L186.307 27.0756L187.228 22.5903C186.485 22.215 185.824 21.6981 185.28 21.0688L183.99 27.3537Z" fill="white"/>
<path d="M200.462 5.89499L204.321 5.56207L203.371 4.01154L201.132 4.20468L200.462 5.89499Z" fill="white"/>
<path d="M209.424 20.822C209.344 19.8979 208.811 19.0798 207.998 18.6334L207.215 20.0592C207.556 20.2458 207.77 20.5748 207.803 20.9618C207.837 21.3488 207.682 21.7096 207.379 21.9518C206.654 22.5308 206.269 23.4281 206.349 24.3523C206.428 25.2764 206.961 26.0945 207.775 26.5409L208.557 25.1151C208.217 24.9285 208.002 24.5994 207.969 24.2125C207.936 23.8255 208.09 23.4646 208.394 23.2225C209.119 22.6434 209.504 21.7462 209.424 20.822Z" fill="white"/>
<path d="M205.373 21.1714C205.293 20.2473 204.76 19.4292 203.947 18.9828L203.164 20.4086C203.505 20.5952 203.719 20.9243 203.752 21.3112C203.786 21.6982 203.631 22.0591 203.328 22.3012C202.603 22.8803 202.218 23.7775 202.298 24.7017C202.377 25.6258 202.91 26.4439 203.724 26.8903L204.506 25.4645C204.166 25.2779 203.951 24.9489 203.918 24.5619C203.885 24.1749 204.039 23.8141 204.343 23.5719C205.068 22.9929 205.453 22.0956 205.373 21.1714Z" fill="white"/>
<path d="M201.322 21.5209C201.242 20.5968 200.709 19.7787 199.896 19.3323L199.113 20.7581C199.454 20.9447 199.668 21.2737 199.701 21.6607C199.735 22.0476 199.58 22.4085 199.277 22.6507C198.552 23.2297 198.167 24.127 198.247 25.0511C198.326 25.9753 198.859 26.7934 199.673 27.2398L200.455 25.814C200.115 25.6274 199.9 25.2983 199.867 24.9114C199.834 24.5244 199.988 24.1635 200.292 23.9214C201.017 23.3423 201.402 22.4451 201.322 21.5209Z" fill="white"/>
<path d="M216.638 9.39703L188.983 11.7826L188.704 8.54173L216.359 6.15618L216.638 9.39703Z" fill="white"/>
<path d="M214.302 11.2311L191.6 13.1894L193.847 17.9474L212.903 16.3036L214.302 11.2311Z" fill="white"/>
<path d="M223.391 15.2287L221.339 1.4653L219.277 1.69327L220.563 15.5415L223.391 15.2287Z" fill="white"/>
<path d="M224.771 15.0762L227.6 14.7634L224.781 1.08476L222.719 1.31273L224.771 15.0762Z" fill="white"/>
<path d="M219.181 15.6941L217.896 1.84595L215.837 2.07356L216.356 16.0065L219.181 15.6941Z" fill="white"/>
<path d="M226.533 1.38635L228.981 14.3855L231.807 14.0228L228.592 1.122L226.533 1.38635Z" fill="white"/>
<path d="M216.462 18.3097C216.687 18.701 217.07 18.9759 217.513 19.0644L218.04 19.1693L218.072 19.7053C218.099 20.1568 218.319 20.5739 218.675 20.8496C219.032 21.1252 219.491 21.2326 219.935 21.1446L220.462 21.0401L220.696 21.523C220.894 21.9299 221.257 22.231 221.692 22.3492C222.127 22.4672 222.592 22.391 222.969 22.1398L223.415 21.8416L223.817 22.198C224.155 22.4983 224.605 22.6377 225.053 22.5803C225.5 22.5229 225.901 22.2742 226.152 21.8982L226.45 21.4519L226.958 21.6276C227.385 21.7755 227.855 21.7318 228.246 21.5077C228.637 21.2834 228.912 20.9004 229.001 20.4568L229.106 19.9303L229.642 19.8984C230.093 19.8715 230.51 19.6515 230.786 19.2947C231.062 18.9379 231.169 18.4787 231.081 18.035L230.976 17.5084L231.459 17.2738C231.866 17.0762 232.167 16.7134 232.286 16.2782C232.368 15.9758 232.356 15.659 232.257 15.3676L216.26 17.4214C216.238 17.7283 216.307 18.0378 216.462 18.3097Z" fill="white"/>
<path d="M241.197 10.8187L241.124 9.5706C240.459 10.1486 239.462 10.1206 238.83 9.50613C238.198 8.89169 238.141 7.89558 238.7 7.21401C239.259 6.53244 240.247 6.39251 240.973 6.89204L240.699 2.28546C236.793 2.7291 233.056 4.12735 229.818 6.35682L239.808 19.1994C240.081 19.5518 240.552 19.6855 240.969 19.5293C241.387 19.373 241.654 18.9632 241.629 18.5181L241.466 15.7208C240.542 14.2409 240.44 12.3909 241.197 10.8187ZM237.661 5.75518C237.752 4.75277 238.532 3.95115 239.532 3.83413C239.623 3.82167 239.715 3.84634 239.787 3.90254C239.859 3.95874 239.905 4.04171 239.916 4.13262C239.925 4.22229 239.899 4.31211 239.842 4.38226C239.785 4.45241 239.703 4.49711 239.614 4.50648C238.931 4.58229 238.399 5.13273 238.347 5.81722C238.329 6.00406 238.163 6.14084 237.976 6.12272C237.789 6.10461 237.652 5.93846 237.67 5.75161L237.661 5.75518ZM236.332 4.23811C236.508 4.17244 236.703 4.26147 236.769 4.43697C236.835 4.61246 236.746 4.80797 236.57 4.87364C236.395 4.93931 236.199 4.85028 236.134 4.67478C236.068 4.49928 236.157 4.30378 236.332 4.23811ZM236.886 7.65358C237.061 7.58791 237.257 7.67694 237.323 7.85244C237.388 8.02793 237.299 8.22344 237.124 8.28911C236.948 8.35478 236.753 8.26575 236.687 8.09025C236.621 7.91475 236.71 7.71925 236.886 7.65358ZM231.902 7.88833C231.541 6.92309 232.031 5.84782 232.996 5.48663C233.961 5.12544 235.036 5.61512 235.398 6.58035C235.759 7.54559 235.269 8.62086 234.304 8.98205C233.339 9.34122 232.265 8.85218 231.902 7.88833ZM235.176 10.8292C235.001 10.8949 234.805 10.8058 234.74 10.6303C234.674 10.4548 234.763 10.2593 234.938 10.1937C235.845 9.78937 236.91 10.1324 237.41 10.9896C237.479 11.0891 237.491 11.2182 237.439 11.3282C237.388 11.4382 237.282 11.5125 237.161 11.523C237.04 11.5335 236.922 11.4787 236.853 11.3792C236.395 10.7355 235.875 10.5676 235.176 10.8292ZM237.28 12.5779C237.345 12.7534 237.256 12.9489 237.081 13.0146C236.905 13.0803 236.71 12.9912 236.644 12.8157C236.578 12.6402 236.667 12.4447 236.843 12.3791C237.018 12.3134 237.214 12.4024 237.28 12.5779ZM240.254 17.6232C240.079 17.6889 239.883 17.5999 239.818 17.4244C239.752 17.2489 239.841 17.0534 240.017 16.9877C240.192 16.922 240.388 17.011 240.453 17.1865C240.519 17.362 240.43 17.5575 240.254 17.6232ZM239.223 15.8355C238.521 16.0982 237.739 15.7421 237.476 15.0401C237.214 14.3381 237.57 13.5561 238.272 13.2934C238.974 13.0307 239.756 13.3869 240.019 14.0888C240.281 14.7908 239.925 15.5729 239.223 15.8355ZM239.504 11.7456C239.328 11.8112 239.133 11.7222 239.067 11.5467C239.002 11.3712 239.091 11.1757 239.266 11.11C239.442 11.0444 239.637 11.1334 239.703 11.3089C239.768 11.4844 239.679 11.6799 239.504 11.7456Z" fill="white"/>
<path d="M238.51 13.9289C238.159 14.0603 237.981 14.4513 238.112 14.8023C238.243 15.1533 238.634 15.3313 238.985 15.2C239.336 15.0687 239.514 14.6776 239.383 14.3267C239.252 13.9757 238.861 13.7976 238.51 13.9289Z" fill="white"/>
<path d="M239.069 8.64788C239.266 9.17437 239.853 9.44146 240.379 9.24445C240.906 9.04744 241.173 8.46093 240.976 7.93444C240.779 7.40795 240.192 7.14085 239.666 7.33786C239.139 7.53487 238.872 8.12139 239.069 8.64788Z" fill="white"/>
<path d="M241.628 1.50661C242.002 1.4788 242.282 1.15329 242.254 0.779556C242.227 0.405826 241.901 0.125402 241.527 0.15321C236.564 0.517981 231.809 2.29728 227.825 5.28047C227.525 5.50483 227.464 5.93006 227.688 6.23024C227.912 6.53042 228.338 6.59188 228.638 6.36751C232.417 3.54311 236.923 1.85667 241.628 1.50661Z" fill="white"/>
<path d="M234.762 6.81818C234.594 6.36835 234.171 6.0642 233.691 6.04757C233.211 6.03094 232.768 6.3051 232.569 6.74221C232.37 7.17931 232.454 7.69329 232.781 8.04446C233.109 8.39564 233.616 8.51486 234.066 8.34654C234.68 8.11669 234.992 7.43242 234.762 6.81818Z" fill="white"/>
<path d="M246.252 10.492L244.357 12.0503L247.81 12.387L246.252 10.492Z" fill="white"/>
<path d="M255.957 13.1813C256.151 12.9131 256.286 12.5973 256.321 12.2446C256.355 11.8917 256.285 11.5553 256.145 11.2553L253.211 10.9693L254.95 13.0831L255.957 13.1813Z" fill="white"/>
<path d="M242.02 11.8225L242.995 11.9176L245.109 10.1793L242.207 9.89646C242.012 10.1638 241.878 10.4803 241.844 10.8332C241.809 11.1859 241.881 11.5219 242.02 11.8225Z" fill="white"/>
<path d="M255.032 10.1746C255.298 10.2005 255.534 10.0058 255.56 9.74006L255.685 8.46057C255.401 8.07837 254.877 8.09853 254.611 8.42418C254.261 8.85152 253.725 9.07506 253.176 9.02151C252.627 8.96797 252.143 8.64505 251.883 8.1583C251.666 7.75077 251.051 7.69079 250.759 8.04865C250.409 8.47599 249.873 8.69952 249.324 8.64598C248.775 8.59243 248.291 8.26952 248.031 7.78276C247.814 7.37523 247.199 7.31527 246.907 7.67311C246.557 8.10045 246.021 8.32399 245.472 8.27044C244.923 8.2169 244.439 7.89398 244.179 7.40723C243.988 7.0492 243.482 6.94807 243.172 7.18417L243.041 8.51958C243.015 8.78528 243.21 9.02212 243.476 9.04802L255.032 10.1746Z" fill="white"/>
<path d="M250.887 10.7426L247.433 10.406L248.992 12.3009L250.887 10.7426Z" fill="white"/>
<path d="M242.134 7.85554L242.211 7.06445C242.185 6.93556 242.213 6.79834 242.305 6.6853C242.655 6.25796 243.191 6.03505 243.74 6.08859C244.289 6.14212 244.772 6.46442 245.033 6.95117C245.25 7.35884 245.865 7.4188 246.157 7.06082C246.507 6.63348 247.043 6.41057 247.592 6.46412C248.141 6.51766 248.624 6.83995 248.885 7.32671C249.102 7.73438 249.717 7.79434 250.009 7.43636C250.359 7.00902 250.895 6.78611 251.444 6.83965C251.993 6.8932 252.476 7.21549 252.737 7.70224C252.954 8.1099 253.569 8.16986 253.861 7.8119C254.528 6.99401 255.978 7.08218 256.547 7.95705C256.654 8.05619 256.715 8.20211 256.7 8.35822L256.611 9.26693C257.19 9.12195 257.645 8.63191 257.706 8.00496C257.887 6.14667 256.494 4.45181 254.635 4.27064L245.005 3.3318C243.147 3.15064 241.452 4.54439 241.271 6.40268C241.21 7.02963 241.594 7.60152 242.134 7.85554Z" fill="white"/>
<path d="M252.029 11.0553L250.135 12.6136L253.588 12.9503L252.029 11.0553Z" fill="white"/>
<path d="M242.997 17.4696L244.378 15.2699C244.52 15.0452 244.817 14.975 245.046 15.1176C245.272 15.2598 245.34 15.5584 245.198 15.7847L243.926 17.8091C244.132 17.8603 244.337 17.9137 244.553 17.9348L245.7 18.0466L247.267 15.5516C247.407 15.3281 247.705 15.256 247.935 15.3993C248.161 15.5415 248.229 15.84 248.087 16.0664L246.777 18.1516L247.924 18.2634L247.783 19.7079C247.757 19.974 247.952 20.2104 248.218 20.2364C248.484 20.2623 248.72 20.0679 248.746 19.8018L248.945 17.7618L250.156 15.8332C250.298 15.6085 250.595 15.5383 250.824 15.6809C251.05 15.8231 251.118 16.1217 250.976 16.348L249.666 18.4333L251.478 18.6099L253.045 16.1149C253.187 15.8902 253.484 15.8199 253.713 15.9626C253.939 16.1048 254.007 16.4033 253.865 16.6297L252.574 18.6847C254.831 18.7395 256.826 17.0283 257.049 14.7459C257.065 14.576 257.046 14.412 257.006 14.2557L240.75 12.6708C240.681 12.8165 240.627 13.0058 240.61 13.1757C240.432 15.0042 241.454 16.6778 242.997 17.4696Z" fill="white"/>
<path d="M272.764 8.11523H268.755L268.14 8.73047L271.593 12.184C271.611 12.1617 271.631 12.1423 271.649 12.1197C272.532 10.9804 272.916 9.55751 272.764 8.11523Z" fill="white"/>
<path d="M265.784 9.3457H261.795C261.914 10.4083 262.327 11.3731 262.963 12.1674L265.784 9.3457Z" fill="white"/>
<path d="M266.654 10.2157L263.833 13.0374C264.627 13.6729 265.592 14.0859 266.654 14.2054V10.2157Z" fill="white"/>
<path d="M267.885 14.2327C268.934 14.1176 269.913 13.7092 270.726 13.0567L267.885 10.2157V14.2327Z" fill="white"/>
<path d="M275.883 8.11523H273.998C274.147 9.82732 273.676 11.5134 272.622 12.873C272.572 12.9371 272.515 12.9927 272.464 13.0546L274.207 14.7974C275.629 13.1733 276.498 11.0538 276.498 8.73047C276.498 8.39049 276.223 8.11523 275.883 8.11523Z" fill="white"/>
<path d="M258 8.11525H260.541C260.665 6.73241 261.204 5.44987 262.076 4.4067L260.333 2.6637C259.038 4.1425 258.138 6.03403 258 8.11525Z" fill="white"/>
<path d="M271.599 13.9299C270.55 14.8071 269.264 15.3396 267.885 15.4632V18C269.966 17.8619 271.858 16.9625 273.336 15.6674L271.599 13.9299Z" fill="white"/>
<path d="M266.654 18V15.4668C265.25 15.3396 263.968 14.7835 262.942 13.9279L261.203 15.6674C262.682 16.9624 264.573 17.8619 266.654 18Z" fill="white"/>
<path d="M260.333 14.7973L262.072 13.0579C261.217 12.0321 260.661 10.7502 260.533 9.3457H258C258.138 11.4269 259.038 13.3185 260.333 14.7973Z" fill="white"/>
<path d="M265.784 8.11524L262.948 5.27924C262.3 6.08849 261.887 7.06406 261.771 8.11524H265.784Z" fill="white"/>
<path d="M267.885 7.24526V3.23182C266.635 3.09724 265.407 3.36304 264.338 4.03274C264.154 4.1473 263.982 4.27419 263.816 4.40669L267.27 7.8605L267.885 7.24526Z" fill="white"/>
<path d="M269.985 6.8848H275.268V6.26956C275.268 4.96475 274.795 3.77995 274.038 2.83258L269.985 6.8848Z" fill="white"/>
<path d="M274.928 1.94208C275.907 3.11615 276.498 4.62476 276.498 6.26955V6.88478H278.385C278.725 6.88478 279 6.60953 279 6.26955C279 3.94624 278.09 1.82672 276.667 0.202759L274.928 1.94208Z" fill="white"/>
<path d="M269.731 0.732422H269.115V6.01479L273.168 1.96257C272.22 1.20474 271.035 0.732422 269.731 0.732422Z" fill="white"/>
<path d="M290.252 7.46058C290.23 7.35345 290.192 7.25278 290.156 7.15139L288.12 10.2478C288.226 10.2406 288.332 10.2397 288.439 10.2178C289.699 9.95756 290.512 8.72064 290.252 7.46058Z" fill="white"/>
<path d="M292.715 6.7576C292.884 6.08913 292.801 5.40074 292.475 4.76671C292.375 4.57206 292.245 4.39684 292.102 4.23309L290.752 6.24535C290.942 6.55979 291.09 6.90126 291.166 7.2718C291.346 8.14013 291.158 8.99905 290.713 9.69253L291.385 12.9453C291.437 13.1979 291.275 13.4445 291.022 13.4966L287.769 14.1683C287.309 14.8512 286.595 15.3641 285.726 15.5434C285.356 15.6199 284.984 15.6198 284.62 15.5696L283.307 17.6061C283.514 17.6726 283.726 17.7225 283.944 17.7372C284.656 17.7857 285.321 17.5893 285.867 17.1689C286.237 16.885 286.705 16.7883 287.151 16.9018C287.97 17.1116 288.858 16.9282 289.527 16.4112C289.892 16.1297 290.359 16.0331 290.813 16.1485C291.481 16.3167 292.168 16.2339 292.8 15.9093C293.648 15.474 294.24 14.5755 294.305 13.6235C294.352 12.9123 294.156 12.2479 293.736 11.7021C293.452 11.3331 293.355 10.8644 293.469 10.4175C293.574 10.0082 293.583 9.58962 293.497 9.17325C293.411 8.75688 293.236 8.37641 292.978 8.04207C292.696 7.67665 292.6 7.2084 292.715 6.7576Z" fill="white"/>
<path d="M287.351 11.872C287.329 11.7649 287.291 11.6642 287.255 11.5629L285.216 14.6635C285.323 14.6564 285.43 14.6514 285.538 14.6292C286.798 14.369 287.611 13.1321 287.351 11.872Z" fill="white"/>
<path d="M290.376 12.677L289.933 10.5279C289.557 10.8138 289.12 11.0302 288.628 11.1319C288.455 11.1676 288.282 11.1728 288.109 11.1806C288.171 11.3438 288.229 11.509 288.265 11.6833C288.367 12.1758 288.341 12.6623 288.227 13.1208L290.376 12.677Z" fill="white"/>
<path d="M281.002 18.4554C281.469 18.3589 281.871 18.086 282.133 17.6875L291.712 3.12378C291.974 2.72526 292.065 2.24795 291.968 1.78064C291.769 0.815656 290.786 0.16886 289.821 0.368134L277.78 2.85459C276.815 3.05386 276.168 4.03731 276.368 5.0023L278.854 17.0429C279.053 18.0079 280.037 18.6546 281.002 18.4554ZM285.717 3.29313C285.859 3.07771 286.148 3.01798 286.363 3.15966L288.018 4.24775C288.233 4.3893 288.293 4.67855 288.151 4.89397C288.009 5.10938 287.72 5.16911 287.505 5.02744L285.85 3.93947C285.635 3.79779 285.575 3.50855 285.717 3.29313ZM282.061 4.04819C282.202 3.8328 282.492 3.77305 282.707 3.91475L286.567 6.45348C286.782 6.59515 286.842 6.8844 286.7 7.0997C286.559 7.31511 286.27 7.37484 286.054 7.23317L282.194 4.69453C281.979 4.55286 281.919 4.26361 282.061 4.04819ZM278.404 4.80329C278.546 4.58787 278.835 4.52814 279.05 4.66981L285.116 8.65921C285.332 8.80088 285.391 9.09013 285.25 9.30554C285.108 9.52084 284.819 9.58057 284.603 9.43902L278.538 5.44962C278.322 5.30795 278.262 5.0187 278.404 4.80329ZM279.159 8.45968C279.301 8.24438 279.59 8.18465 279.806 8.3262L283.666 10.8649C283.881 11.0066 283.941 11.2959 283.799 11.5113C283.657 11.7267 283.368 11.7864 283.153 11.6447L279.293 9.10602C279.077 8.96434 279.018 8.67521 279.159 8.45968ZM279.914 12.1162C280.056 11.9008 280.345 11.841 280.561 11.9827L282.215 13.0707C282.43 13.2124 282.49 13.5016 282.348 13.717C282.207 13.9324 281.917 13.9922 281.702 13.8505L280.048 12.7625C279.832 12.6209 279.773 12.3316 279.914 12.1162Z" fill="white"/>
<rect x="6.10352e-05" y="3.05176e-05" width="297" height="7" fill="white"/>
</g>
<defs>
<clipPath id="clip0">
<rect width="297" height="31" fill="white"/>
</clipPath>
</defs>
</svg>
