<svg width="305" height="42" viewBox="0 0 305 42" fill="none" xmlns="http://www.w3.org/2000/svg">
<path d="M28.4373 18.0167C28.9247 18.7957 28.9947 19.8073 28.5311 20.6743C26.6176 24.2531 22.1494 25.608 18.5706 23.6945L15.896 22.2644L14.6595 24.274L29.8145 32.3769L38.3288 13.8345C38.5237 13.4101 38.3546 12.9073 37.9427 12.6871L33.1637 10.1319C33.3056 11.0452 33.1637 12.0099 32.6953 12.8859C32.1554 13.8958 31.0502 14.4136 29.9773 14.2585C30.0347 14.9174 29.9092 15.5994 29.5748 16.2249C29.24 16.851 28.7418 17.3345 28.1611 17.6528C28.3845 17.8458 28.4954 17.9773 28.4373 18.0167V18.0167Z" fill="white"/>
<path d="M21.4051 29.8833C21.4045 29.883 21.4037 29.8829 21.4031 29.8826L13.6158 25.7189C13.1856 25.4889 12.6505 25.6511 12.4205 26.0813C12.1905 26.5115 12.3527 27.0465 12.7829 27.2766L19.1335 30.672L15.3129 32.7687L12.6194 31.3286C12.1892 31.0986 11.6541 31.2608 11.4241 31.691C11.1941 32.1212 11.3563 32.6563 11.7865 32.8863L14.9019 34.552C15.1651 34.6927 15.4816 34.6911 15.7431 34.5474L20.9932 31.6664L28.3597 35.605C28.7899 35.835 29.325 35.6728 29.555 35.2426C29.785 34.8124 29.6227 34.2774 29.1925 34.0474L21.4078 29.8851C21.4068 29.8845 21.4059 29.8838 21.4051 29.8833Z" fill="white"/>
<path d="M26.9734 19.8415C27.2034 19.4113 27.0412 18.8762 26.611 18.6462L9.99575 9.76251C9.56557 9.53251 9.0305 9.69474 8.80049 10.1249C7.34626 12.8448 8.37593 16.2407 11.0958 17.6949L19.4034 22.1368C22.1233 23.591 25.5192 22.5613 26.9734 19.8415Z" fill="white"/>
<path d="M25.6265 16.1169C26.4868 16.5769 27.557 16.2524 28.017 15.3921C28.477 14.5317 28.1525 13.4615 27.2922 13.0015L21.4999 11C20.6396 10.54 18.96 9.13962 18.4999 10C18.0399 10.8604 13.6396 10.54 14.4999 11L25.6265 16.1169Z" fill="white"/>
<path d="M37.964 35.6444L37.7103 36.8801L39.7307 38.0486L42.5319 24.4035C41.7644 24.3279 40.9899 24.3803 40.2398 24.5585L37.964 35.6444Z" fill="white"/>
<path d="M37.088 26.2385C36.868 26.4417 36.6344 26.6297 36.389 26.8008L34.6424 35.3088L36.9598 35.0308L39.0265 24.9633C38.3145 25.2788 37.6595 25.7097 37.088 26.2385V26.2385Z" fill="white"/>
<path d="M40.6607 39.0234L40.5925 39.3557L42.9098 39.0776L45.6965 25.5035C45.0585 25.0914 44.3577 24.7858 43.6218 24.5992L40.6607 39.0234Z" fill="white"/>
<path d="M31.9828 31.7487L34.0032 32.9173L35.1163 27.4951C34.3675 27.8002 33.5675 27.9607 32.759 27.9677L31.9828 31.7487Z" fill="white"/>
<path d="M48.1904 28.3398C47.8153 27.5611 47.2999 26.858 46.6701 26.2662L44.5509 36.5891L46.5713 37.7577L48.413 28.7867C48.3848 28.7329 48.3549 28.6809 48.3283 28.6264L48.1904 28.3398Z" fill="white"/>
<path d="M30.3828 26.3288C32.3626 27.2882 34.7287 26.9299 36.3356 25.4274C38.2273 23.6719 40.8406 22.919 43.3765 23.3991C45.9122 23.8788 48.0696 25.5343 49.1889 27.86L49.3268 28.1465C50.198 29.9781 52.0362 31.1537 54.0641 31.1757L54.9954 10.887L38.5 10.887L30.3473 26.3121L30.3828 26.3288ZM52.6719 27.2696L51.566 27.2277L51.6081 26.1062L52.7139 26.1481L52.6719 27.2696ZM52.9232 20.5403L52.7555 25.0265L51.6494 24.9859L51.8171 20.4997L52.9232 20.5403Z" fill="white"/>
<path d="M47.9897 36.3537L50.3071 36.0756L51.2278 31.5903C50.4854 31.215 49.8237 30.6981 49.2799 30.0688L47.9897 36.3537Z" fill="white"/>
<path d="M64.4617 14.895L68.3212 14.5621L67.3712 13.0115L65.1321 13.2047L64.4617 14.895Z" fill="white"/>
<path d="M73.4239 29.822C73.3442 28.8979 72.8113 28.0798 71.998 27.6334L71.2154 29.0592C71.5559 29.2458 71.7701 29.5748 71.8035 29.9618C71.8368 30.3488 71.6822 30.7096 71.3787 30.9518C70.6539 31.5308 70.2689 32.4281 70.3487 33.3523C70.4284 34.2764 70.9613 35.0945 71.7746 35.5409L72.5571 34.1151C72.2166 33.9285 72.0025 33.5994 71.9691 33.2125C71.9357 32.8255 72.0903 32.4646 72.3938 32.2225C73.1187 31.6434 73.5036 30.7462 73.4239 29.822Z" fill="white"/>
<path d="M69.3729 30.1714C69.2931 29.2473 68.7602 28.4292 67.947 27.9828L67.1644 29.4086C67.5049 29.5952 67.7191 29.9243 67.7524 30.3112C67.7858 30.6982 67.6312 31.0591 67.3277 31.3012C66.6028 31.8803 66.2179 32.7775 66.2976 33.7017C66.3773 34.6258 66.9102 35.4439 67.7235 35.8903L68.5061 34.4645C68.1656 34.2779 67.9514 33.9489 67.9181 33.5619C67.8847 33.1749 68.0393 32.8141 68.3428 32.5719C69.0676 31.9929 69.4526 31.0956 69.3729 30.1714V30.1714Z" fill="white"/>
<path d="M65.3218 30.5209C65.2421 29.5968 64.7092 28.7787 63.8959 28.3323L63.1134 29.7581C63.4539 29.9447 63.668 30.2737 63.7014 30.6607C63.7348 31.0476 63.5801 31.4085 63.2767 31.6507C62.5518 32.2297 62.1669 33.127 62.2466 34.0511C62.3263 34.9753 62.8592 35.7934 63.6725 36.2398L64.455 34.814C64.1146 34.6274 63.9004 34.2983 63.867 33.9114C63.8336 33.5244 63.9883 33.1635 64.2918 32.9214C65.0166 32.3423 65.4015 31.4451 65.3218 30.5209Z" fill="white"/>
<path d="M80.6384 18.397L52.9832 20.7826L52.7036 17.5417L80.3589 15.1562L80.6384 18.397Z" fill="white"/>
<path d="M78.3016 20.2311L55.5996 22.1894L57.8466 26.9474L76.9026 25.3036L78.3016 20.2311Z" fill="white"/>
<path d="M87.3914 24.2287L85.3392 10.4653L83.2772 10.6933L84.5627 24.5415L87.3914 24.2287Z" fill="white"/>
<path d="M88.7712 24.0762L91.5999 23.7634L88.7811 10.0848L86.719 10.3127L88.7712 24.0762Z" fill="white"/>
<path d="M83.1814 24.6941L81.8959 10.846L79.837 11.0736L80.3559 25.0065L83.1814 24.6941Z" fill="white"/>
<path d="M90.5329 10.3864L92.9811 23.3855L95.8068 23.0228L92.5919 10.122L90.5329 10.3864Z" fill="white"/>
<path d="M80.4624 27.3097C80.6865 27.701 81.0697 27.9759 81.5132 28.0644L82.0399 28.1693L82.0716 28.7053C82.0985 29.1568 82.3186 29.5739 82.6755 29.8496C83.0323 30.1252 83.4913 30.2326 83.9351 30.1446L84.4617 30.0401L84.6961 30.523C84.8938 30.9299 85.2568 31.231 85.692 31.3492C86.127 31.4672 86.5924 31.391 86.9687 31.1398L87.4151 30.8416L87.8167 31.198C88.1549 31.4983 88.6055 31.6377 89.0526 31.5803C89.4998 31.5229 89.9006 31.2742 90.1522 30.8982L90.4504 30.4519L90.9579 30.6276C91.3852 30.7755 91.8548 30.7318 92.2461 30.5077C92.6374 30.2834 92.9124 29.9004 93.0008 29.4568L93.1058 28.9303L93.6417 28.8984C94.0928 28.8715 94.5102 28.6515 94.7858 28.2947C95.0616 27.9379 95.169 27.4787 95.081 27.035L94.9763 26.5084L95.4594 26.2738C95.8663 26.0762 96.1675 25.7134 96.2856 25.2782C96.3675 24.9758 96.3555 24.659 96.2566 24.3676L80.2604 26.4214C80.2382 26.7283 80.3066 27.0378 80.4624 27.3097V27.3097Z" fill="white"/>
<path d="M105.197 19.8187L105.124 18.5706C104.459 19.1486 103.462 19.1206 102.83 18.5061C102.198 17.8917 102.141 16.8956 102.7 16.214C103.259 15.5324 104.247 15.3925 104.973 15.892L104.699 11.2855C100.793 11.7291 97.0561 13.1273 93.8185 15.3568L103.808 28.1994C104.081 28.5518 104.552 28.6855 104.969 28.5293C105.387 28.373 105.654 27.9632 105.629 27.5181L105.466 24.7208C104.542 23.2409 104.44 21.3909 105.197 19.8187V19.8187ZM101.661 14.7552C101.752 13.7528 102.532 12.9512 103.532 12.8341C103.623 12.8217 103.715 12.8463 103.787 12.9025C103.859 12.9587 103.905 13.0417 103.916 13.1326C103.925 13.2223 103.899 13.3121 103.842 13.3823C103.785 13.4524 103.703 13.4971 103.614 13.5065C102.931 13.5823 102.399 14.1327 102.347 14.8172C102.329 15.0041 102.163 15.1408 101.976 15.1227C101.789 15.1046 101.652 14.9385 101.67 14.7516L101.661 14.7552ZM100.332 13.2381C100.508 13.1724 100.703 13.2615 100.769 13.437C100.835 13.6125 100.746 13.808 100.57 13.8736C100.395 13.9393 100.199 13.8503 100.134 13.6748C100.068 13.4993 100.157 13.3038 100.332 13.2381ZM100.886 16.6536C101.061 16.5879 101.257 16.6769 101.323 16.8524C101.388 17.0279 101.299 17.2234 101.124 17.2891C100.948 17.3548 100.753 17.2657 100.687 17.0903C100.621 16.9148 100.71 16.7192 100.886 16.6536ZM95.9022 16.8883C95.541 15.9231 96.0307 14.8478 96.9959 14.4866C97.9611 14.1254 99.0364 14.6151 99.3976 15.5804C99.7588 16.5456 99.2691 17.6209 98.3039 17.9821C97.3387 18.3412 96.2648 17.8522 95.9022 16.8883ZM99.1762 19.8292C99.0007 19.8949 98.8052 19.8058 98.7395 19.6303C98.6739 19.4548 98.7629 19.2593 98.9384 19.1937C99.8446 18.7894 100.91 19.1324 101.41 19.9896C101.479 20.0891 101.491 20.2182 101.439 20.3282C101.388 20.4382 101.282 20.5125 101.161 20.523C101.04 20.5335 100.922 20.4787 100.853 20.3792C100.395 19.7355 99.8753 19.5676 99.1762 19.8292V19.8292ZM101.28 21.5779C101.345 21.7534 101.256 21.9489 101.081 22.0146C100.905 22.0803 100.71 21.9912 100.644 21.8157C100.578 21.6402 100.667 21.4447 100.843 21.3791C101.018 21.3134 101.214 21.4024 101.28 21.5779ZM104.254 26.6232C104.079 26.6889 103.883 26.5999 103.818 26.4244C103.752 26.2489 103.841 26.0534 104.017 25.9877C104.192 25.922 104.388 26.011 104.453 26.1865C104.519 26.362 104.43 26.5575 104.254 26.6232ZM103.223 24.8355C102.521 25.0982 101.739 24.7421 101.476 24.0401C101.214 23.3381 101.57 22.5561 102.272 22.2934C102.974 22.0307 103.756 22.3869 104.019 23.0888C104.281 23.7908 103.925 24.5729 103.223 24.8355ZM103.504 20.7456C103.328 20.8112 103.133 20.7222 103.067 20.5467C103.002 20.3712 103.091 20.1757 103.266 20.11C103.442 20.0444 103.637 20.1334 103.703 20.3089C103.768 20.4844 103.679 20.6799 103.504 20.7456Z" fill="white"/>
<path d="M102.51 22.9289C102.159 23.0603 101.981 23.4513 102.112 23.8023C102.243 24.1533 102.634 24.3313 102.985 24.2C103.336 24.0687 103.514 23.6776 103.383 23.3267C103.252 22.9757 102.861 22.7976 102.51 22.9289Z" fill="white"/>
<path d="M103.069 17.6479C103.266 18.1744 103.853 18.4415 104.379 18.2445C104.906 18.0474 105.173 17.4609 104.976 16.9344C104.779 16.4079 104.192 16.1408 103.666 16.3379C103.139 16.5349 102.872 17.1214 103.069 17.6479Z" fill="white"/>
<path d="M105.628 10.5066C106.002 10.4788 106.282 10.1533 106.254 9.77956C106.227 9.40583 105.901 9.1254 105.527 9.15321C100.564 9.51798 95.8089 11.2973 91.8253 14.2805C91.5251 14.5048 91.4637 14.9301 91.688 15.2302C91.9124 15.5304 92.3376 15.5919 92.6378 15.3675C96.4166 12.5431 100.923 10.8567 105.628 10.5066Z" fill="white"/>
<path d="M98.7619 15.8182C98.5936 15.3683 98.1709 15.0642 97.6909 15.0476C97.2108 15.0309 96.7681 15.3051 96.569 15.7422C96.37 16.1793 96.4538 16.6933 96.7815 17.0445C97.1091 17.3956 97.6161 17.5149 98.0659 17.3465C98.6801 17.1167 98.9918 16.4324 98.7619 15.8182Z" fill="white"/>
<path d="M110.252 19.492L108.357 21.0503L111.81 21.387L110.252 19.492Z" fill="white"/>
<path d="M119.957 22.1813C120.151 21.9131 120.286 21.5973 120.321 21.2446C120.355 20.8917 120.285 20.5553 120.145 20.2553L117.211 19.9693L118.95 22.0831L119.957 22.1813Z" fill="white"/>
<path d="M106.02 20.8225L106.995 20.9176L109.109 19.1793L106.207 18.8965C106.012 19.1638 105.878 19.4803 105.844 19.8332C105.809 20.1859 105.881 20.5219 106.02 20.8225V20.8225Z" fill="white"/>
<path d="M119.032 19.1746C119.298 19.2005 119.534 19.0058 119.56 18.7401L119.685 17.4606C119.401 17.0784 118.877 17.0985 118.611 17.4242C118.261 17.8515 117.725 18.0751 117.176 18.0215C116.627 17.968 116.143 17.6451 115.883 17.1583C115.666 16.7508 115.051 16.6908 114.759 17.0486C114.409 17.476 113.873 17.6995 113.324 17.646C112.775 17.5924 112.291 17.2695 112.031 16.7828C111.814 16.3752 111.199 16.3153 110.907 16.6731C110.557 17.1005 110.021 17.324 109.472 17.2704C108.923 17.2169 108.439 16.894 108.179 16.4072C107.988 16.0492 107.482 15.9481 107.172 16.1842L107.041 17.5196C107.015 17.7853 107.21 18.0221 107.476 18.048L119.032 19.1746Z" fill="white"/>
<path d="M114.887 19.7426L111.433 19.406L112.992 21.3009L114.887 19.7426Z" fill="white"/>
<path d="M106.134 16.8555L106.211 16.0644C106.185 15.9356 106.213 15.7983 106.305 15.6853C106.655 15.258 107.191 15.0351 107.74 15.0886C108.289 15.1421 108.772 15.4644 109.033 15.9512C109.25 16.3588 109.865 16.4188 110.157 16.0608C110.507 15.6335 111.043 15.4106 111.592 15.4641C112.141 15.5177 112.624 15.84 112.885 16.3267C113.102 16.7344 113.717 16.7943 114.009 16.4364C114.359 16.009 114.895 15.7861 115.444 15.8397C115.993 15.8932 116.476 16.2155 116.737 16.7022C116.954 17.1099 117.569 17.1699 117.861 16.8119C118.528 15.994 119.978 16.0822 120.547 16.957C120.654 17.0562 120.715 17.2021 120.7 17.3582L120.611 18.2669C121.19 18.122 121.645 17.6319 121.706 17.005C121.887 15.1467 120.494 13.4518 118.635 13.2706L109.005 12.3318C107.147 12.1506 105.452 13.5444 105.271 15.4027C105.21 16.0296 105.594 16.6015 106.134 16.8555V16.8555Z" fill="white"/>
<path d="M116.029 20.0553L114.135 21.6136L117.588 21.9503L116.029 20.0553Z" fill="white"/>
<path d="M106.997 26.4696L108.378 24.2699C108.52 24.0452 108.817 23.975 109.046 24.1176C109.272 24.2598 109.34 24.5584 109.198 24.7847L107.926 26.8091C108.132 26.8603 108.337 26.9137 108.553 26.9348L109.7 27.0466L111.267 24.5516C111.407 24.3281 111.705 24.256 111.935 24.3993C112.161 24.5415 112.229 24.84 112.087 25.0664L110.777 27.1516L111.924 27.2634L111.783 28.7079C111.757 28.974 111.952 29.2104 112.218 29.2364C112.484 29.2623 112.72 29.0679 112.746 28.8018L112.945 26.7618L114.156 24.8332C114.298 24.6085 114.595 24.5383 114.824 24.6809C115.05 24.8231 115.118 25.1217 114.976 25.348L113.666 27.4333L115.478 27.6099L117.045 25.1149C117.187 24.8902 117.484 24.8199 117.713 24.9626C117.939 25.1048 118.007 25.4033 117.865 25.6297L116.574 27.6847C118.831 27.7395 120.826 26.0283 121.049 23.7459C121.065 23.576 121.046 23.412 121.006 23.2557L104.75 21.6708C104.681 21.8165 104.627 22.0058 104.61 22.1757C104.432 24.0042 105.454 25.6778 106.997 26.4696Z" fill="white"/>
<path d="M136.764 17.1152H132.755L132.14 17.7305L135.593 21.184C135.611 21.1617 135.631 21.1423 135.649 21.1197C136.532 19.9804 136.916 18.5575 136.764 17.1152V17.1152Z" fill="white"/>
<path d="M129.784 18.3457H125.795C125.914 19.4083 126.327 20.3731 126.963 21.1674L129.784 18.3457Z" fill="white"/>
<path d="M130.654 19.2157L127.833 22.0374C128.627 22.6729 129.592 23.0859 130.654 23.2054V19.2157Z" fill="white"/>
<path d="M131.885 23.2327C132.934 23.1176 133.913 22.7092 134.726 22.0567L131.885 19.2157V23.2327Z" fill="white"/>
<path d="M139.883 17.1152H137.998C138.147 18.8273 137.676 20.5134 136.622 21.873C136.572 21.9371 136.515 21.9927 136.464 22.0546L138.207 23.7974C139.629 22.1733 140.498 20.0538 140.498 17.7305C140.498 17.3905 140.223 17.1152 139.883 17.1152Z" fill="white"/>
<path d="M122 17.1152H124.541C124.665 15.7324 125.204 14.4499 126.076 13.4067L124.333 11.6637C123.038 13.1425 122.138 15.034 122 17.1152Z" fill="white"/>
<path d="M135.599 22.9299C134.55 23.8071 133.264 24.3396 131.885 24.4632V27C133.966 26.8619 135.858 25.9625 137.336 24.6674L135.599 22.9299Z" fill="white"/>
<path d="M130.654 27V24.4668C129.25 24.3396 127.968 23.7835 126.942 22.9279L125.203 24.6674C126.682 25.9624 128.573 26.8619 130.654 27Z" fill="white"/>
<path d="M124.333 23.7973L126.072 22.0579C125.217 21.0321 124.661 19.7502 124.533 18.3457H122C122.138 20.4269 123.038 22.3185 124.333 23.7973Z" fill="white"/>
<path d="M129.784 17.1152L126.948 14.2792C126.3 15.0885 125.887 16.0641 125.771 17.1152H129.784Z" fill="white"/>
<path d="M131.885 16.2453V12.2318C130.635 12.0972 129.407 12.363 128.338 13.0327C128.154 13.1473 127.982 13.2742 127.816 13.4067L131.27 16.8605L131.885 16.2453Z" fill="white"/>
<path d="M133.985 15.8848H139.268V15.2696C139.268 13.9648 138.795 12.7799 138.038 11.8326L133.985 15.8848Z" fill="white"/>
<path d="M138.928 10.9421C139.907 12.1161 140.498 13.6248 140.498 15.2695V15.8848H142.385C142.725 15.8848 143 15.6095 143 15.2695C143 12.9462 142.09 10.8267 140.667 9.20276L138.928 10.9421Z" fill="white"/>
<path d="M133.731 9.73242H133.115V15.0148L137.168 10.9626C136.22 10.2047 135.035 9.73242 133.731 9.73242Z" fill="white"/>
<path d="M154.252 16.4606C154.23 16.3534 154.192 16.2528 154.156 16.1514L152.12 19.2478C152.226 19.2406 152.332 19.2397 152.439 19.2178C153.699 18.9576 154.512 17.7206 154.252 16.4606V16.4606Z" fill="white"/>
<path d="M156.715 15.7576C156.884 15.0891 156.801 14.4007 156.475 13.7667C156.375 13.5721 156.245 13.3968 156.102 13.2331L154.752 15.2454C154.942 15.5598 155.09 15.9013 155.166 16.2718C155.346 17.1401 155.158 17.9991 154.713 18.6925L155.385 21.9453C155.437 22.1979 155.275 22.4445 155.022 22.4966L151.769 23.1683C151.309 23.8512 150.595 24.3641 149.726 24.5434C149.356 24.6199 148.984 24.6198 148.62 24.5696L147.307 26.6061C147.514 26.6726 147.726 26.7225 147.944 26.7372C148.656 26.7857 149.321 26.5893 149.867 26.1689C150.237 25.885 150.705 25.7883 151.151 25.9018C151.97 26.1116 152.858 25.9282 153.527 25.4112C153.892 25.1297 154.359 25.0331 154.813 25.1485C155.481 25.3167 156.168 25.2339 156.8 24.9093C157.648 24.474 158.24 23.5755 158.305 22.6235C158.352 21.9123 158.156 21.2479 157.736 20.7021C157.452 20.3331 157.355 19.8644 157.469 19.4175C157.574 19.0082 157.583 18.5896 157.497 18.1733C157.411 17.7569 157.236 17.3764 156.978 17.0421C156.696 16.6766 156.6 16.2084 156.715 15.7576V15.7576Z" fill="white"/>
<path d="M151.351 20.872C151.329 20.7649 151.291 20.6642 151.255 20.5629L149.216 23.6635C149.323 23.6564 149.43 23.6514 149.538 23.6292C150.798 23.369 151.611 22.1321 151.351 20.872V20.872Z" fill="white"/>
<path d="M154.376 21.677L153.933 19.5279C153.557 19.8138 153.12 20.0302 152.628 20.1319C152.455 20.1676 152.282 20.1728 152.109 20.1806C152.171 20.3438 152.229 20.509 152.265 20.6833C152.367 21.1758 152.341 21.6623 152.227 22.1208L154.376 21.677Z" fill="white"/>
<path d="M145.002 27.4554C145.469 27.3589 145.871 27.086 146.133 26.6875L155.712 12.1238C155.974 11.7253 156.065 11.248 155.968 10.7806C155.769 9.81566 154.786 9.16886 153.821 9.36813L141.78 11.8546C140.815 12.0539 140.168 13.0373 140.368 14.0023L142.854 26.0429C143.053 27.0079 144.037 27.6546 145.002 27.4554V27.4554ZM149.717 12.2931C149.859 12.0777 150.148 12.018 150.363 12.1597L152.018 13.2477C152.233 13.3893 152.293 13.6785 152.151 13.894C152.009 14.1094 151.72 14.1691 151.505 14.0274L149.85 12.9395C149.635 12.7978 149.575 12.5085 149.717 12.2931V12.2931ZM146.061 13.0482C146.202 12.8328 146.492 12.773 146.707 12.9147L150.567 15.4535C150.782 15.5952 150.842 15.8844 150.7 16.0997C150.559 16.3151 150.27 16.3748 150.054 16.2332L146.194 13.6945C145.979 13.5529 145.919 13.2636 146.061 13.0482V13.0482ZM142.404 13.8033C142.546 13.5879 142.835 13.5281 143.05 13.6698L149.116 17.6592C149.332 17.8009 149.391 18.0901 149.25 18.3055C149.108 18.5208 148.819 18.5806 148.603 18.439L142.538 14.4496C142.322 14.3079 142.262 14.0187 142.404 13.8033ZM143.159 17.4597C143.301 17.2444 143.59 17.1846 143.806 17.3262L147.666 19.8649C147.881 20.0066 147.941 20.2959 147.799 20.5113C147.657 20.7267 147.368 20.7864 147.153 20.6447L143.293 18.106C143.077 17.9643 143.018 17.6752 143.159 17.4597ZM143.914 21.1162C144.056 20.9008 144.345 20.841 144.561 20.9827L146.215 22.0707C146.43 22.2124 146.49 22.5016 146.348 22.717C146.207 22.9324 145.917 22.9922 145.702 22.8505L144.048 21.7625C143.832 21.6209 143.773 21.3316 143.914 21.1162Z" fill="white"/>
<path d="M172.437 18.0167C172.925 18.7957 172.995 19.8073 172.531 20.6743C170.618 24.2531 166.149 25.608 162.571 23.6945L159.896 22.2644L158.66 24.274L173.814 32.3769L182.329 13.8345C182.524 13.4101 182.355 12.9073 181.943 12.6871L177.164 10.1319C177.306 11.0452 177.164 12.0099 176.695 12.8859C176.155 13.8958 175.05 14.4136 173.977 14.2585C174.035 14.9174 173.909 15.5994 173.575 16.2249C173.24 16.851 172.742 17.3345 172.161 17.6528C172.384 17.8458 172.495 17.9773 172.437 18.0167V18.0167Z" fill="white"/>
<path d="M165.405 29.8833C165.404 29.883 165.404 29.8829 165.403 29.8826L157.616 25.7189C157.186 25.4889 156.651 25.6511 156.42 26.0813C156.19 26.5115 156.353 27.0465 156.783 27.2766L163.133 30.672L159.313 32.7687L156.619 31.3286C156.189 31.0986 155.654 31.2608 155.424 31.691C155.194 32.1212 155.356 32.6563 155.787 32.8863L158.902 34.552C159.165 34.6927 159.482 34.6911 159.743 34.5474L164.993 31.6664L172.36 35.605C172.79 35.835 173.325 35.6728 173.555 35.2426C173.785 34.8124 173.623 34.2774 173.193 34.0474L165.408 29.8851C165.407 29.8845 165.406 29.8838 165.405 29.8833Z" fill="white"/>
<path d="M170.973 19.8415C171.203 19.4113 171.041 18.8762 170.611 18.6462L153.996 9.76251C153.566 9.53251 153.03 9.69474 152.8 10.1249C151.346 12.8448 152.376 16.2407 155.096 17.6949L163.403 22.1368C166.123 23.591 169.519 22.5613 170.973 19.8415Z" fill="white"/>
<path d="M169.626 16.1169C170.487 16.5769 171.557 16.2524 172.017 15.3921C172.477 14.5317 172.153 13.4615 171.292 13.0015L165.5 11C164.64 10.54 162.96 9.13962 162.5 10C162.04 10.8604 157.64 10.54 158.5 11L169.626 16.1169Z" fill="white"/>
<path d="M181.964 35.6444L181.71 36.8801L183.731 38.0486L186.532 24.4035C185.764 24.3279 184.99 24.3803 184.24 24.5585L181.964 35.6444Z" fill="white"/>
<path d="M181.088 26.2385C180.868 26.4417 180.634 26.6297 180.389 26.8008L178.642 35.3088L180.96 35.0308L183.027 24.9633C182.314 25.2788 181.66 25.7097 181.088 26.2385V26.2385Z" fill="white"/>
<path d="M184.661 39.0234L184.592 39.3557L186.91 39.0776L189.696 25.5035C189.058 25.0914 188.358 24.7858 187.622 24.5992L184.661 39.0234Z" fill="white"/>
<path d="M175.983 31.7487L178.003 32.9173L179.116 27.4951C178.367 27.8002 177.567 27.9607 176.759 27.9677L175.983 31.7487Z" fill="white"/>
<path d="M192.19 28.3398C191.815 27.5611 191.3 26.858 190.67 26.2662L188.551 36.5891L190.571 37.7577L192.413 28.7867C192.385 28.7329 192.355 28.6809 192.328 28.6264L192.19 28.3398Z" fill="white"/>
<path d="M174.383 26.3288C176.363 27.2882 178.729 26.9299 180.336 25.4274C182.227 23.6719 184.841 22.919 187.376 23.3991C189.912 23.8788 192.07 25.5343 193.189 27.86L193.327 28.1465C194.198 29.9781 196.036 31.1537 198.064 31.1757L198.995 10.887L182.5 10.887L174.347 26.3121L174.383 26.3288ZM196.672 27.2696L195.566 27.2277L195.608 26.1062L196.714 26.1481L196.672 27.2696ZM196.923 20.5403L196.755 25.0265L195.649 24.9859L195.817 20.4997L196.923 20.5403Z" fill="white"/>
<path d="M191.99 36.3537L194.307 36.0756L195.228 31.5903C194.485 31.215 193.824 30.6981 193.28 30.0688L191.99 36.3537Z" fill="white"/>
<path d="M208.462 14.895L212.321 14.5621L211.371 13.0115L209.132 13.2047L208.462 14.895Z" fill="white"/>
<path d="M217.424 29.822C217.344 28.8979 216.811 28.0798 215.998 27.6334L215.215 29.0592C215.556 29.2458 215.77 29.5748 215.803 29.9618C215.837 30.3488 215.682 30.7096 215.379 30.9518C214.654 31.5308 214.269 32.4281 214.349 33.3523C214.428 34.2764 214.961 35.0945 215.775 35.5409L216.557 34.1151C216.217 33.9285 216.002 33.5994 215.969 33.2125C215.936 32.8255 216.09 32.4646 216.394 32.2225C217.119 31.6434 217.504 30.7462 217.424 29.822Z" fill="white"/>
<path d="M213.373 30.1714C213.293 29.2473 212.76 28.4292 211.947 27.9828L211.164 29.4086C211.505 29.5952 211.719 29.9243 211.752 30.3112C211.786 30.6982 211.631 31.0591 211.328 31.3012C210.603 31.8803 210.218 32.7775 210.298 33.7017C210.377 34.6258 210.91 35.4439 211.724 35.8903L212.506 34.4645C212.166 34.2779 211.951 33.9489 211.918 33.5619C211.885 33.1749 212.039 32.8141 212.343 32.5719C213.068 31.9929 213.453 31.0956 213.373 30.1714V30.1714Z" fill="white"/>
<path d="M209.322 30.5209C209.242 29.5968 208.709 28.7787 207.896 28.3323L207.113 29.7581C207.454 29.9447 207.668 30.2737 207.701 30.6607C207.735 31.0476 207.58 31.4085 207.277 31.6507C206.552 32.2297 206.167 33.127 206.247 34.0511C206.326 34.9753 206.859 35.7934 207.673 36.2398L208.455 34.814C208.115 34.6274 207.9 34.2983 207.867 33.9114C207.834 33.5244 207.988 33.1635 208.292 32.9214C209.017 32.3423 209.402 31.4451 209.322 30.5209Z" fill="white"/>
<path d="M224.638 18.397L196.983 20.7826L196.704 17.5417L224.359 15.1562L224.638 18.397Z" fill="white"/>
<path d="M222.302 20.2311L199.6 22.1894L201.847 26.9474L220.903 25.3036L222.302 20.2311Z" fill="white"/>
<path d="M231.391 24.2287L229.339 10.4653L227.277 10.6933L228.563 24.5415L231.391 24.2287Z" fill="white"/>
<path d="M232.771 24.0762L235.6 23.7634L232.781 10.0848L230.719 10.3127L232.771 24.0762Z" fill="white"/>
<path d="M227.181 24.6941L225.896 10.846L223.837 11.0736L224.356 25.0065L227.181 24.6941Z" fill="white"/>
<path d="M234.533 10.3864L236.981 23.3855L239.807 23.0228L236.592 10.122L234.533 10.3864Z" fill="white"/>
<path d="M224.462 27.3097C224.687 27.701 225.07 27.9759 225.513 28.0644L226.04 28.1693L226.072 28.7053C226.099 29.1568 226.319 29.5739 226.675 29.8496C227.032 30.1252 227.491 30.2326 227.935 30.1446L228.462 30.0401L228.696 30.523C228.894 30.9299 229.257 31.231 229.692 31.3492C230.127 31.4672 230.592 31.391 230.969 31.1398L231.415 30.8416L231.817 31.198C232.155 31.4983 232.605 31.6377 233.053 31.5803C233.5 31.5229 233.901 31.2742 234.152 30.8982L234.45 30.4519L234.958 30.6276C235.385 30.7755 235.855 30.7318 236.246 30.5077C236.637 30.2834 236.912 29.9004 237.001 29.4568L237.106 28.9303L237.642 28.8984C238.093 28.8715 238.51 28.6515 238.786 28.2947C239.062 27.9379 239.169 27.4787 239.081 27.035L238.976 26.5084L239.459 26.2738C239.866 26.0762 240.167 25.7134 240.286 25.2782C240.368 24.9758 240.356 24.659 240.257 24.3676L224.26 26.4214C224.238 26.7283 224.307 27.0378 224.462 27.3097V27.3097Z" fill="white"/>
<path d="M249.197 19.8187L249.124 18.5706C248.459 19.1486 247.462 19.1206 246.83 18.5061C246.198 17.8917 246.141 16.8956 246.7 16.214C247.259 15.5324 248.247 15.3925 248.973 15.892L248.699 11.2855C244.793 11.7291 241.056 13.1273 237.818 15.3568L247.808 28.1994C248.081 28.5518 248.552 28.6855 248.969 28.5293C249.387 28.373 249.654 27.9632 249.629 27.5181L249.466 24.7208C248.542 23.2409 248.44 21.3909 249.197 19.8187V19.8187ZM245.661 14.7552C245.752 13.7528 246.532 12.9512 247.532 12.8341C247.623 12.8217 247.715 12.8463 247.787 12.9025C247.859 12.9587 247.905 13.0417 247.916 13.1326C247.925 13.2223 247.899 13.3121 247.842 13.3823C247.785 13.4524 247.703 13.4971 247.614 13.5065C246.931 13.5823 246.399 14.1327 246.347 14.8172C246.329 15.0041 246.163 15.1408 245.976 15.1227C245.789 15.1046 245.652 14.9385 245.67 14.7516L245.661 14.7552ZM244.332 13.2381C244.508 13.1724 244.703 13.2615 244.769 13.437C244.835 13.6125 244.746 13.808 244.57 13.8736C244.395 13.9393 244.199 13.8503 244.134 13.6748C244.068 13.4993 244.157 13.3038 244.332 13.2381ZM244.886 16.6536C245.061 16.5879 245.257 16.6769 245.323 16.8524C245.388 17.0279 245.299 17.2234 245.124 17.2891C244.948 17.3548 244.753 17.2657 244.687 17.0903C244.621 16.9148 244.71 16.7192 244.886 16.6536ZM239.902 16.8883C239.541 15.9231 240.031 14.8478 240.996 14.4866C241.961 14.1254 243.036 14.6151 243.398 15.5804C243.759 16.5456 243.269 17.6209 242.304 17.9821C241.339 18.3412 240.265 17.8522 239.902 16.8883ZM243.176 19.8292C243.001 19.8949 242.805 19.8058 242.74 19.6303C242.674 19.4548 242.763 19.2593 242.938 19.1937C243.845 18.7894 244.91 19.1324 245.41 19.9896C245.479 20.0891 245.491 20.2182 245.439 20.3282C245.388 20.4382 245.282 20.5125 245.161 20.523C245.04 20.5335 244.922 20.4787 244.853 20.3792C244.395 19.7355 243.875 19.5676 243.176 19.8292V19.8292ZM245.28 21.5779C245.345 21.7534 245.256 21.9489 245.081 22.0146C244.905 22.0803 244.71 21.9912 244.644 21.8157C244.578 21.6402 244.667 21.4447 244.843 21.3791C245.018 21.3134 245.214 21.4024 245.28 21.5779ZM248.254 26.6232C248.079 26.6889 247.883 26.5999 247.818 26.4244C247.752 26.2489 247.841 26.0534 248.017 25.9877C248.192 25.922 248.388 26.011 248.453 26.1865C248.519 26.362 248.43 26.5575 248.254 26.6232ZM247.223 24.8355C246.521 25.0982 245.739 24.7421 245.476 24.0401C245.214 23.3381 245.57 22.5561 246.272 22.2934C246.974 22.0307 247.756 22.3869 248.019 23.0888C248.281 23.7908 247.925 24.5729 247.223 24.8355ZM247.504 20.7456C247.328 20.8112 247.133 20.7222 247.067 20.5467C247.002 20.3712 247.091 20.1757 247.266 20.11C247.442 20.0444 247.637 20.1334 247.703 20.3089C247.768 20.4844 247.679 20.6799 247.504 20.7456Z" fill="white"/>
<path d="M246.51 22.9289C246.159 23.0603 245.981 23.4513 246.112 23.8023C246.243 24.1533 246.634 24.3313 246.985 24.2C247.336 24.0687 247.514 23.6776 247.383 23.3267C247.252 22.9757 246.861 22.7976 246.51 22.9289Z" fill="white"/>
<path d="M247.069 17.6479C247.266 18.1744 247.853 18.4415 248.379 18.2445C248.906 18.0474 249.173 17.4609 248.976 16.9344C248.779 16.4079 248.192 16.1408 247.666 16.3379C247.139 16.5349 246.872 17.1214 247.069 17.6479Z" fill="white"/>
<path d="M249.628 10.5066C250.002 10.4788 250.282 10.1533 250.254 9.77956C250.227 9.40583 249.901 9.1254 249.527 9.15321C244.564 9.51798 239.809 11.2973 235.825 14.2805C235.525 14.5048 235.464 14.9301 235.688 15.2302C235.912 15.5304 236.338 15.5919 236.638 15.3675C240.417 12.5431 244.923 10.8567 249.628 10.5066Z" fill="white"/>
<path d="M242.762 15.8182C242.594 15.3683 242.171 15.0642 241.691 15.0476C241.211 15.0309 240.768 15.3051 240.569 15.7422C240.37 16.1793 240.454 16.6933 240.781 17.0445C241.109 17.3956 241.616 17.5149 242.066 17.3465C242.68 17.1167 242.992 16.4324 242.762 15.8182Z" fill="white"/>
<path d="M254.252 19.492L252.357 21.0503L255.81 21.387L254.252 19.492Z" fill="white"/>
<path d="M263.957 22.1813C264.151 21.9131 264.286 21.5973 264.321 21.2446C264.355 20.8917 264.285 20.5553 264.145 20.2553L261.211 19.9693L262.95 22.0831L263.957 22.1813Z" fill="white"/>
<path d="M250.02 20.8225L250.995 20.9176L253.109 19.1793L250.207 18.8965C250.012 19.1638 249.878 19.4803 249.844 19.8332C249.809 20.1859 249.881 20.5219 250.02 20.8225V20.8225Z" fill="white"/>
<path d="M263.032 19.1746C263.298 19.2005 263.534 19.0058 263.56 18.7401L263.685 17.4606C263.401 17.0784 262.877 17.0985 262.611 17.4242C262.261 17.8515 261.725 18.0751 261.176 18.0215C260.627 17.968 260.143 17.6451 259.883 17.1583C259.666 16.7508 259.051 16.6908 258.759 17.0486C258.409 17.476 257.873 17.6995 257.324 17.646C256.775 17.5924 256.291 17.2695 256.031 16.7828C255.814 16.3752 255.199 16.3153 254.907 16.6731C254.557 17.1005 254.021 17.324 253.472 17.2704C252.923 17.2169 252.439 16.894 252.179 16.4072C251.988 16.0492 251.482 15.9481 251.172 16.1842L251.041 17.5196C251.015 17.7853 251.21 18.0221 251.476 18.048L263.032 19.1746Z" fill="white"/>
<path d="M258.887 19.7426L255.433 19.406L256.992 21.3009L258.887 19.7426Z" fill="white"/>
<path d="M250.134 16.8555L250.211 16.0644C250.185 15.9356 250.213 15.7983 250.305 15.6853C250.655 15.258 251.191 15.0351 251.74 15.0886C252.289 15.1421 252.772 15.4644 253.033 15.9512C253.25 16.3588 253.865 16.4188 254.157 16.0608C254.507 15.6335 255.043 15.4106 255.592 15.4641C256.141 15.5177 256.624 15.84 256.885 16.3267C257.102 16.7344 257.717 16.7943 258.009 16.4364C258.359 16.009 258.895 15.7861 259.444 15.8397C259.993 15.8932 260.476 16.2155 260.737 16.7022C260.954 17.1099 261.569 17.1699 261.861 16.8119C262.528 15.994 263.978 16.0822 264.547 16.957C264.654 17.0562 264.715 17.2021 264.7 17.3582L264.611 18.2669C265.19 18.122 265.645 17.6319 265.706 17.005C265.887 15.1467 264.494 13.4518 262.635 13.2706L253.005 12.3318C251.147 12.1506 249.452 13.5444 249.271 15.4027C249.21 16.0296 249.594 16.6015 250.134 16.8555V16.8555Z" fill="white"/>
<path d="M260.029 20.0553L258.135 21.6136L261.588 21.9503L260.029 20.0553Z" fill="white"/>
<path d="M250.997 26.4696L252.378 24.2699C252.52 24.0452 252.817 23.975 253.046 24.1176C253.272 24.2598 253.34 24.5584 253.198 24.7847L251.926 26.8091C252.132 26.8603 252.337 26.9137 252.553 26.9348L253.7 27.0466L255.267 24.5516C255.407 24.3281 255.705 24.256 255.935 24.3993C256.161 24.5415 256.229 24.84 256.087 25.0664L254.777 27.1516L255.924 27.2634L255.783 28.7079C255.757 28.974 255.952 29.2104 256.218 29.2364C256.484 29.2623 256.72 29.0679 256.746 28.8018L256.945 26.7618L258.156 24.8332C258.298 24.6085 258.595 24.5383 258.824 24.6809C259.05 24.8231 259.118 25.1217 258.976 25.348L257.666 27.4333L259.478 27.6099L261.045 25.1149C261.187 24.8902 261.484 24.8199 261.713 24.9626C261.939 25.1048 262.007 25.4033 261.865 25.6297L260.574 27.6847C262.831 27.7395 264.826 26.0283 265.049 23.7459C265.065 23.576 265.046 23.412 265.006 23.2557L248.75 21.6708C248.681 21.8165 248.627 22.0058 248.61 22.1757C248.432 24.0042 249.454 25.6778 250.997 26.4696Z" fill="white"/>
<path d="M280.764 17.1152H276.755L276.14 17.7305L279.593 21.184C279.611 21.1617 279.631 21.1423 279.649 21.1197C280.532 19.9804 280.916 18.5575 280.764 17.1152V17.1152Z" fill="white"/>
<path d="M273.784 18.3457H269.795C269.914 19.4083 270.327 20.3731 270.963 21.1674L273.784 18.3457Z" fill="white"/>
<path d="M274.654 19.2157L271.833 22.0374C272.627 22.6729 273.592 23.0859 274.654 23.2054V19.2157Z" fill="white"/>
<path d="M275.885 23.2327C276.934 23.1176 277.913 22.7092 278.726 22.0567L275.885 19.2157V23.2327Z" fill="white"/>
<path d="M283.883 17.1152H281.998C282.147 18.8273 281.676 20.5134 280.622 21.873C280.572 21.9371 280.515 21.9927 280.464 22.0546L282.207 23.7974C283.629 22.1733 284.498 20.0538 284.498 17.7305C284.498 17.3905 284.223 17.1152 283.883 17.1152Z" fill="white"/>
<path d="M266 17.1152H268.541C268.665 15.7324 269.204 14.4499 270.076 13.4067L268.333 11.6637C267.038 13.1425 266.138 15.034 266 17.1152Z" fill="white"/>
<path d="M279.599 22.9299C278.55 23.8071 277.264 24.3396 275.885 24.4632V27C277.966 26.8619 279.858 25.9625 281.336 24.6674L279.599 22.9299Z" fill="white"/>
<path d="M274.654 27V24.4668C273.25 24.3396 271.968 23.7835 270.942 22.9279L269.203 24.6674C270.682 25.9624 272.573 26.8619 274.654 27Z" fill="white"/>
<path d="M268.333 23.7973L270.072 22.0579C269.217 21.0321 268.661 19.7502 268.533 18.3457H266C266.138 20.4269 267.038 22.3185 268.333 23.7973Z" fill="white"/>
<path d="M273.784 17.1152L270.948 14.2792C270.3 15.0885 269.887 16.0641 269.771 17.1152H273.784Z" fill="white"/>
<path d="M275.885 16.2453V12.2318C274.635 12.0972 273.407 12.363 272.338 13.0327C272.154 13.1473 271.982 13.2742 271.816 13.4067L275.27 16.8605L275.885 16.2453Z" fill="white"/>
<path d="M277.985 15.8848H283.268V15.2696C283.268 13.9648 282.795 12.7799 282.038 11.8326L277.985 15.8848Z" fill="white"/>
<path d="M282.928 10.9421C283.907 12.1161 284.498 13.6248 284.498 15.2695V15.8848H286.385C286.725 15.8848 287 15.6095 287 15.2695C287 12.9462 286.09 10.8267 284.667 9.20276L282.928 10.9421Z" fill="white"/>
<path d="M277.731 9.73242H277.115V15.0148L281.168 10.9626C280.22 10.2047 279.035 9.73242 277.731 9.73242Z" fill="white"/>
<path d="M298.252 16.4606C298.23 16.3534 298.192 16.2528 298.156 16.1514L296.12 19.2478C296.226 19.2406 296.332 19.2397 296.439 19.2178C297.699 18.9576 298.512 17.7206 298.252 16.4606V16.4606Z" fill="white"/>
<path d="M300.715 15.7576C300.884 15.0891 300.801 14.4007 300.475 13.7667C300.375 13.5721 300.245 13.3968 300.102 13.2331L298.752 15.2454C298.942 15.5598 299.09 15.9013 299.166 16.2718C299.346 17.1401 299.158 17.9991 298.713 18.6925L299.385 21.9453C299.437 22.1979 299.275 22.4445 299.022 22.4966L295.769 23.1683C295.309 23.8512 294.595 24.3641 293.726 24.5434C293.356 24.6199 292.984 24.6198 292.62 24.5696L291.307 26.6061C291.514 26.6726 291.726 26.7225 291.944 26.7372C292.656 26.7857 293.321 26.5893 293.867 26.1689C294.237 25.885 294.705 25.7883 295.151 25.9018C295.97 26.1116 296.858 25.9282 297.527 25.4112C297.892 25.1297 298.359 25.0331 298.813 25.1485C299.481 25.3167 300.168 25.2339 300.8 24.9093C301.648 24.474 302.24 23.5755 302.305 22.6235C302.352 21.9123 302.156 21.2479 301.736 20.7021C301.452 20.3331 301.355 19.8644 301.469 19.4175C301.574 19.0082 301.583 18.5896 301.497 18.1733C301.411 17.7569 301.236 17.3764 300.978 17.0421C300.696 16.6766 300.6 16.2084 300.715 15.7576V15.7576Z" fill="white"/>
<path d="M295.351 20.872C295.329 20.7649 295.291 20.6642 295.255 20.5629L293.216 23.6635C293.323 23.6564 293.43 23.6514 293.538 23.6292C294.798 23.369 295.611 22.1321 295.351 20.872V20.872Z" fill="white"/>
<path d="M298.376 21.677L297.933 19.5279C297.557 19.8138 297.12 20.0302 296.628 20.1319C296.455 20.1676 296.282 20.1728 296.109 20.1806C296.171 20.3438 296.229 20.509 296.265 20.6833C296.367 21.1758 296.341 21.6623 296.227 22.1208L298.376 21.677Z" fill="white"/>
<path d="M289.002 27.4554C289.469 27.3589 289.871 27.086 290.133 26.6875L299.712 12.1238C299.974 11.7253 300.065 11.248 299.968 10.7806C299.769 9.81566 298.786 9.16886 297.821 9.36813L285.78 11.8546C284.815 12.0539 284.168 13.0373 284.368 14.0023L286.854 26.0429C287.053 27.0079 288.037 27.6546 289.002 27.4554V27.4554ZM293.717 12.2931C293.859 12.0777 294.148 12.018 294.363 12.1597L296.018 13.2477C296.233 13.3893 296.293 13.6785 296.151 13.894C296.009 14.1094 295.72 14.1691 295.505 14.0274L293.85 12.9395C293.635 12.7978 293.575 12.5085 293.717 12.2931V12.2931ZM290.061 13.0482C290.202 12.8328 290.492 12.773 290.707 12.9147L294.567 15.4535C294.782 15.5952 294.842 15.8844 294.7 16.0997C294.559 16.3151 294.27 16.3748 294.054 16.2332L290.194 13.6945C289.979 13.5529 289.919 13.2636 290.061 13.0482V13.0482ZM286.404 13.8033C286.546 13.5879 286.835 13.5281 287.05 13.6698L293.116 17.6592C293.332 17.8009 293.391 18.0901 293.25 18.3055C293.108 18.5208 292.819 18.5806 292.603 18.439L286.538 14.4496C286.322 14.3079 286.262 14.0187 286.404 13.8033ZM287.159 17.4597C287.301 17.2444 287.59 17.1846 287.806 17.3262L291.666 19.8649C291.881 20.0066 291.941 20.2959 291.799 20.5113C291.657 20.7267 291.368 20.7864 291.153 20.6447L287.293 18.106C287.077 17.9643 287.018 17.6752 287.159 17.4597ZM287.914 21.1162C288.056 20.9008 288.345 20.841 288.561 20.9827L290.215 22.0707C290.43 22.2124 290.49 22.5016 290.348 22.717C290.207 22.9324 289.917 22.9922 289.702 22.8505L288.048 21.7625C287.832 21.6209 287.773 21.3316 287.914 21.1162Z" fill="white"/>
<rect x="8.00012" y="9.00003" width="297" height="7" fill="white"/>
</svg>
